<svg width="169" height="172" viewBox="0 0 169 172" fill="none" xmlns="http://www.w3.org/2000/svg">
<path d="M135.812 53.8853L109.954 75.7318C109.954 75.7318 115.349 86.6391 124.418 97.5797L146.757 78.7094C146.757 78.7094 145.254 65.2213 135.812 53.8853Z" fill="#F99370"/>
<path d="M32.3777 53.8853L58.2355 75.7318C58.2355 75.7318 52.8408 86.6391 43.772 97.5797L21.4329 78.7094C21.4329 78.7094 22.9356 65.2213 32.3777 53.8853Z" fill="#F99370"/>
<path d="M135.812 82.4654L84.0948 95.8273V16.0337L135.812 2.67188V82.4654Z" fill="#40300F"/>
<path d="M84.0948 95.8273L32.3777 82.4654V2.67188L84.0948 16.0337V95.8273Z" fill="#40300F"/>
<path d="M129.4 77.9171L84.0948 89.6223V11.7046L129.4 -0.000488281V77.9171Z" fill="#FFEEEE"/>
<path d="M123.011 40.8189L101.253 46.4398V13.9524L123.011 8.33154V40.8189Z" fill="#FFD16C"/>
<path d="M95.7902 9.41921V47.8535L94.3486 46.7588L91.8649 44.8662L89.3674 48.0575L87.9257 49.9029V10.8872C87.9258 10.6462 88.006 10.4121 88.1537 10.2218C88.3014 10.0314 88.5082 9.89547 88.7416 9.83546L89.3674 9.67312L94.3458 8.38827L94.4276 8.36607C94.5886 8.32407 94.757 8.31953 94.9199 8.35279C95.0829 8.38605 95.236 8.45623 95.3676 8.55793C95.4992 8.65964 95.6057 8.79016 95.679 8.93947C95.7522 9.08878 95.7903 9.25289 95.7902 9.41921Z" fill="#FCBC31"/>
<path d="M94.3489 8.38843V46.7575L91.8597 44.8664L89.3705 48.0535V9.67327L94.3489 8.38843Z" fill="#DBA42D"/>
<path d="M129.4 77.9171L133.719 81.1681V3.21301L129.4 -0.000488281V77.9171Z" fill="#FFD16C"/>
<path d="M84.0948 93.9889L133.72 81.1682L129.4 77.9172L84.0948 89.6224V93.9889Z" fill="#FFD16C"/>
<path d="M84.0951 89.6223L38.7898 77.9171V-0.000488281L84.0951 11.7046V89.6223Z" fill="#FFEEEE"/>
<path d="M38.7893 77.9171L34.4699 81.1681V3.21301L38.7893 -0.000488281V77.9171Z" fill="#FFD16C"/>
<path d="M78.843 17.5087C78.7868 17.5087 78.7309 17.5017 78.6764 17.4879L56.9312 11.8699C56.7597 11.8255 56.6129 11.7149 56.523 11.5623C56.4331 11.4096 56.4075 11.2276 56.4518 11.0561C56.4962 10.8846 56.6068 10.7377 56.7594 10.6478C56.9121 10.5579 57.0941 10.5323 57.2656 10.5767L79.0095 16.1948C79.1671 16.2351 79.3045 16.3315 79.396 16.4661C79.4875 16.6006 79.5266 16.7639 79.5062 16.9252C79.4858 17.0866 79.4071 17.235 79.2849 17.3424C79.1628 17.4499 79.0056 17.509 78.843 17.5087Z" fill="#FFD16C"/>
<path d="M52.182 10.6224C52.1253 10.6225 52.0689 10.615 52.0141 10.6002L43.041 8.28307C42.8737 8.23483 42.7318 8.12322 42.6455 7.97198C42.5592 7.82075 42.5353 7.64181 42.5788 7.47321C42.6224 7.3046 42.73 7.15963 42.8787 7.06912C43.0275 6.97861 43.2057 6.94969 43.3754 6.98851L52.3485 9.30706C52.5052 9.34846 52.6416 9.44536 52.7322 9.57974C52.8228 9.71412 52.8615 9.87685 52.8412 10.0376C52.8208 10.1984 52.7428 10.3464 52.6215 10.4539C52.5003 10.5615 52.3441 10.6214 52.182 10.6224Z" fill="#FFD16C"/>
<path d="M78.8432 24.0092C78.7869 24.0093 78.7309 24.0019 78.6767 23.987L68.2023 21.2786C68.0308 21.2342 67.884 21.1236 67.7941 20.9709C67.7042 20.8183 67.6786 20.6363 67.7229 20.4648C67.7672 20.2933 67.8779 20.1464 68.0305 20.0565C68.1831 19.9666 68.3652 19.941 68.5367 19.9854L79.0097 22.691C79.1664 22.7324 79.3027 22.8293 79.3934 22.9637C79.484 23.0981 79.5227 23.2608 79.5023 23.4216C79.482 23.5824 79.4039 23.7304 79.2827 23.8379C79.1614 23.9455 79.0053 24.0054 78.8432 24.0064V24.0092Z" fill="#FFD16C"/>
<path d="M65.1874 20.4809C65.1307 20.481 65.0742 20.4736 65.0195 20.4587L43.0454 14.7823C42.878 14.7341 42.7361 14.6225 42.6498 14.4713C42.5635 14.32 42.5396 14.1411 42.5831 13.9725C42.6267 13.8039 42.7343 13.6589 42.883 13.5684C43.0318 13.4779 43.21 13.449 43.3797 13.4878L65.3539 19.1655C65.5106 19.2069 65.6469 19.3038 65.7376 19.4382C65.8282 19.5726 65.8669 19.7353 65.8466 19.8961C65.8262 20.0569 65.7482 20.2048 65.6269 20.3124C65.5057 20.42 65.3495 20.4798 65.1874 20.4809Z" fill="#FFD16C"/>
<path d="M78.843 30.5082C78.7867 30.5083 78.7307 30.5008 78.6765 30.486L69.9517 28.2326C69.8668 28.2107 69.7871 28.1722 69.717 28.1194C69.647 28.0667 69.588 28.0006 69.5435 27.925C69.499 27.8495 69.4698 27.7659 69.4576 27.679C69.4454 27.5922 69.4504 27.5038 69.4724 27.4189C69.4943 27.334 69.5328 27.2542 69.5856 27.1842C69.6383 27.1141 69.7044 27.0551 69.78 27.0106C69.8555 26.9661 69.9391 26.9369 70.026 26.9247C70.1128 26.9125 70.2012 26.9175 70.2861 26.9395L79.0095 29.1873C79.1662 29.2287 79.3025 29.3256 79.3931 29.4599C79.4838 29.5943 79.5225 29.757 79.5021 29.9178C79.4818 30.0786 79.4037 30.2266 79.2825 30.3341C79.1612 30.4417 79.0051 30.5016 78.843 30.5026V30.5082Z" fill="#FFD16C"/>
<path d="M66.2955 27.2656C66.2389 27.2655 66.1825 27.2585 66.1276 27.2448L52.9656 23.844C52.7941 23.7996 52.6472 23.689 52.5573 23.5364C52.4674 23.3838 52.4418 23.2017 52.4862 23.0302C52.5305 22.8587 52.6412 22.7119 52.7938 22.622C52.9464 22.5321 53.1285 22.5065 53.3 22.5508L66.462 25.9516C66.6196 25.9919 66.757 26.0884 66.8485 26.2229C66.94 26.3574 66.9792 26.5207 66.9587 26.6821C66.9383 26.8435 66.8596 26.9918 66.7374 27.0993C66.6153 27.2067 66.4581 27.2659 66.2955 27.2656Z" fill="#FFD16C"/>
<path d="M49.772 22.9977C49.7153 22.9978 49.6588 22.9904 49.6041 22.9755L43.0453 21.2785C42.9604 21.2566 42.8806 21.2181 42.8106 21.1653C42.7406 21.1126 42.6816 21.0465 42.6371 20.9709C42.5926 20.8954 42.5634 20.8118 42.5511 20.7249C42.5389 20.6381 42.544 20.5497 42.5659 20.4648C42.5879 20.3799 42.6263 20.3001 42.6791 20.2301C42.7319 20.16 42.798 20.101 42.8735 20.0565C42.9491 20.012 43.0327 19.9828 43.1195 19.9706C43.2064 19.9584 43.2948 19.9634 43.3797 19.9854L49.9385 21.6795C50.0952 21.7209 50.2316 21.8178 50.3222 21.9522C50.4128 22.0866 50.4515 22.2493 50.4312 22.4101C50.4108 22.5709 50.3328 22.7189 50.2115 22.8264C50.0903 22.934 49.9341 22.9939 49.772 22.9949V22.9977Z" fill="#FFD16C"/>
<path d="M78.8434 37.0074C78.7873 37.0073 78.7314 37.0003 78.6769 36.9866L64.2467 33.2569C64.0794 33.2087 63.9375 33.0971 63.8512 32.9459C63.7648 32.7946 63.7409 32.6157 63.7845 32.4471C63.828 32.2785 63.9356 32.1335 64.0844 32.043C64.2331 31.9525 64.4113 31.9236 64.5811 31.9624L79.0113 35.692C79.168 35.7334 79.3044 35.8303 79.395 35.9647C79.4856 36.0991 79.5243 36.2618 79.504 36.4226C79.4836 36.5834 79.4056 36.7314 79.2843 36.8389C79.1631 36.9465 79.0069 37.0064 78.8448 37.0074H78.8434Z" fill="#FFD16C"/>
<path d="M58.2373 31.6849C58.1807 31.6848 58.1243 31.6778 58.0694 31.6641L43.0453 27.779C42.8738 27.7347 42.727 27.624 42.6371 27.4714C42.5472 27.3188 42.5216 27.1367 42.5659 26.9653C42.6103 26.7938 42.7209 26.6469 42.8735 26.557C43.0261 26.4671 43.2082 26.4415 43.3797 26.4859L58.4038 30.3709C58.5605 30.4123 58.6968 30.5092 58.7874 30.6436C58.8781 30.778 58.9168 30.9407 58.8964 31.1015C58.8761 31.2623 58.798 31.4102 58.6768 31.5178C58.5555 31.6254 58.3993 31.6852 58.2373 31.6863V31.6849Z" fill="#FFD16C"/>
<path d="M78.8433 43.5065C78.7872 43.5065 78.7313 43.4995 78.6768 43.4857L43.0453 34.2795C42.8738 34.2352 42.727 34.1245 42.6371 33.9719C42.5472 33.8193 42.5216 33.6372 42.5659 33.4657C42.6103 33.2943 42.7209 33.1474 42.8735 33.0575C43.0261 32.9676 43.2082 32.942 43.3797 32.9864L79.0098 42.1912C79.1665 42.2326 79.3029 42.3295 79.3935 42.4639C79.4841 42.5982 79.5229 42.761 79.5025 42.9217C79.4821 43.0825 79.4041 43.2305 79.2828 43.3381C79.1616 43.4456 79.0054 43.5055 78.8433 43.5065Z" fill="#FFD16C"/>
<path d="M78.8429 50.0001C78.7868 50 78.7308 49.993 78.6764 49.9793L64.403 46.2913C64.3181 46.2693 64.2383 46.2308 64.1683 46.178C64.0982 46.1253 64.0393 46.0592 63.9947 45.9837C63.9048 45.831 63.8792 45.649 63.9236 45.4775C63.9679 45.306 64.0786 45.1591 64.2312 45.0692C64.3838 44.9793 64.5659 44.9537 64.7374 44.9981L79.0094 48.6861C79.167 48.7264 79.3045 48.8229 79.3959 48.9574C79.4874 49.0919 79.5266 49.2552 79.5061 49.4166C79.4857 49.578 79.407 49.7263 79.2849 49.8338C79.1627 49.9412 79.0056 50.0004 78.8429 50.0001Z" fill="#FFD16C"/>
<path d="M60.1035 45.1648C60.0468 45.1649 59.9903 45.1574 59.9356 45.1425L43.0453 40.7788C42.8738 40.7345 42.727 40.6238 42.6371 40.4712C42.5472 40.3186 42.5216 40.1365 42.5659 39.965C42.6103 39.7935 42.7209 39.6467 42.8735 39.5568C43.0261 39.4669 43.2082 39.4413 43.3797 39.4856L60.27 43.8494C60.4267 43.8908 60.563 43.9877 60.6536 44.1221C60.7443 44.2564 60.783 44.4192 60.7627 44.58C60.7423 44.7408 60.6642 44.8887 60.543 44.9963C60.4217 45.1038 60.2656 45.1637 60.1035 45.1648Z" fill="#FFD16C"/>
<path d="M78.8434 56.5064C78.7871 56.5066 78.7311 56.4991 78.6769 56.4842L43.0454 47.2794C42.878 47.2312 42.7361 47.1195 42.6498 46.9683C42.5635 46.8171 42.5396 46.6381 42.5831 46.4695C42.6267 46.3009 42.7343 46.156 42.883 46.0655C43.0318 45.9749 43.21 45.946 43.3797 45.9849L79.0099 55.1911C79.1666 55.2325 79.3029 55.3293 79.3936 55.4637C79.4842 55.5981 79.5229 55.7608 79.5025 55.9216C79.4822 56.0824 79.4041 56.2304 79.2829 56.3379C79.1616 56.4455 79.0055 56.5054 78.8434 56.5064Z" fill="#FFD16C"/>
<path d="M78.843 63.0054C78.7868 63.0055 78.7307 62.9981 78.6765 62.9832L59.6522 58.0686C59.4807 58.0243 59.3339 57.9136 59.244 57.761C59.1541 57.6084 59.1285 57.4263 59.1728 57.2548C59.2172 57.0833 59.3278 56.9365 59.4804 56.8466C59.633 56.7567 59.8151 56.7311 59.9866 56.7754L79.0095 61.69C79.1662 61.7314 79.3026 61.8283 79.3932 61.9627C79.4838 62.0971 79.5225 62.2598 79.5022 62.4206C79.4818 62.5814 79.4038 62.7294 79.2825 62.8369C79.1613 62.9445 79.0051 63.0043 78.843 63.0054Z" fill="#FFD16C"/>
<path d="M54.602 56.7422C54.5459 56.742 54.49 56.735 54.4355 56.7214L43.0454 53.7784C42.878 53.7302 42.7361 53.6186 42.6498 53.4673C42.5635 53.3161 42.5396 53.1372 42.5831 52.9686C42.6267 52.8 42.7343 52.655 42.883 52.5645C43.0318 52.474 43.21 52.4451 43.3797 52.4839L54.7699 55.4268C54.9267 55.4682 55.0631 55.5653 55.1537 55.6998C55.2444 55.8343 55.283 55.9972 55.2624 56.1581C55.2419 56.319 55.1636 56.4669 55.0421 56.5744C54.9206 56.6818 54.7642 56.7414 54.602 56.7422Z" fill="#FFD16C"/>
<path d="M78.8428 69.5047C78.7867 69.5046 78.7308 69.4976 78.6763 69.4839L68.7472 66.9183C68.5799 66.8701 68.438 66.7585 68.3517 66.6072C68.2654 66.456 68.2414 66.2771 68.285 66.1085C68.3285 65.9399 68.4361 65.7949 68.5849 65.7044C68.7337 65.6139 68.9119 65.5849 69.0816 65.6238L79.0093 68.1893C79.166 68.2307 79.3024 68.3276 79.393 68.462C79.4836 68.5964 79.5223 68.7591 79.502 68.9199C79.4816 69.0807 79.4036 69.2286 79.2823 69.3362C79.1611 69.4437 79.0049 69.5036 78.8428 69.5047Z" fill="#FFD16C"/>
<path d="M64.8444 65.8872C64.7878 65.8871 64.7315 65.8801 64.6766 65.8664L44.0025 60.5259C43.831 60.4815 43.6842 60.3709 43.5943 60.2183C43.5044 60.0656 43.4788 59.8836 43.5231 59.7121C43.5674 59.5406 43.6781 59.3938 43.8307 59.3038C43.9833 59.2139 44.1654 59.1884 44.3369 59.2327L65.0109 64.5719C65.1676 64.6133 65.304 64.7102 65.3946 64.8445C65.4852 64.9789 65.524 65.1417 65.5036 65.3025C65.4832 65.4633 65.4052 65.6112 65.284 65.7187C65.1627 65.8263 65.0065 65.8862 64.8444 65.8872Z" fill="#FFD16C"/>
<path d="M78.8429 76.0037C78.7868 76.0036 78.7308 75.9966 78.6764 75.9828L69.8212 73.6948C69.7363 73.6729 69.6566 73.6344 69.5865 73.5816C69.5165 73.5288 69.4575 73.4628 69.413 73.3872C69.3231 73.2346 69.2975 73.0525 69.3419 72.881C69.3862 72.7096 69.4968 72.5627 69.6495 72.4728C69.8021 72.3829 69.9842 72.3573 70.1556 72.4016L79.0094 74.6883C79.1661 74.7297 79.3024 74.8266 79.3931 74.961C79.4837 75.0953 79.5224 75.2581 79.5021 75.4189C79.4817 75.5797 79.4036 75.7276 79.2824 75.8352C79.1612 75.9427 79.005 76.0026 78.8429 76.0037Z" fill="#FFD16C"/>
<path d="M67.0169 72.9484C66.9603 72.9483 66.9039 72.9413 66.849 72.9276L55.0815 69.8876C54.9141 69.8393 54.7722 69.7277 54.6859 69.5765C54.5996 69.4252 54.5757 69.2463 54.6192 69.0777C54.6628 68.9091 54.7704 68.7641 54.9191 68.6736C55.0679 68.5831 55.2461 68.5542 55.4159 68.593L67.1834 71.6331C67.3401 71.6745 67.4765 71.7714 67.5671 71.9057C67.6577 72.0401 67.6964 72.2029 67.6761 72.3637C67.6557 72.5245 67.5777 72.6724 67.4564 72.7799C67.3352 72.8875 67.179 72.9474 67.0169 72.9484Z" fill="#FFD16C"/>
<path d="M51.8519 69.0299C51.7953 69.0298 51.7389 69.0228 51.684 69.0091L43.0453 66.7766C42.8738 66.7323 42.727 66.6216 42.6371 66.469C42.5472 66.3164 42.5216 66.1343 42.5659 65.9628C42.6103 65.7913 42.7209 65.6445 42.8735 65.5546C43.0261 65.4647 43.2082 65.4391 43.3797 65.4834L52.0184 67.7146C52.1751 67.756 52.3114 67.8529 52.4021 67.9872C52.4927 68.1216 52.5314 68.2844 52.5111 68.4452C52.4907 68.606 52.4127 68.7539 52.2914 68.8614C52.1702 68.969 52.014 69.0289 51.8519 69.0299Z" fill="#FFD16C"/>
<path d="M78.8433 82.5029C78.7872 82.5028 78.7313 82.4958 78.6768 82.4821L43.0453 73.2759C42.8738 73.2315 42.727 73.1209 42.6371 72.9683C42.5472 72.8156 42.5216 72.6336 42.5659 72.4621C42.6103 72.2906 42.7209 72.1438 42.8735 72.0538C43.0261 71.9639 43.2082 71.9384 43.3797 71.9827L79.0098 81.1875C79.1665 81.2289 79.3029 81.3258 79.3935 81.4602C79.4841 81.5946 79.5229 81.7573 79.5025 81.9181C79.4821 82.0789 79.4041 82.2268 79.2828 82.3344C79.1616 82.4419 79.0054 82.5018 78.8433 82.5029Z" fill="#FFD16C"/>
<path d="M88.9315 56.5063C88.7694 56.5053 88.6132 56.4454 88.492 56.3378C88.3707 56.2303 88.2927 56.0823 88.2723 55.9215C88.252 55.7607 88.2907 55.598 88.3813 55.4636C88.4719 55.3293 88.6083 55.2324 88.765 55.191L96.8348 53.1097C96.9207 53.0849 97.0107 53.0776 97.0995 53.0882C97.1882 53.0988 97.274 53.1271 97.3516 53.1715C97.4293 53.2158 97.4972 53.2752 97.5515 53.3462C97.6058 53.4173 97.6453 53.4985 97.6676 53.585C97.69 53.6716 97.6948 53.7617 97.6817 53.8502C97.6686 53.9386 97.6379 54.0235 97.5914 54.0999C97.545 54.1763 97.4837 54.2426 97.4111 54.2948C97.3386 54.3471 97.2563 54.3843 97.1692 54.4042L89.0994 56.4855C89.0446 56.4999 88.9881 56.5069 88.9315 56.5063Z" fill="#FFD16C"/>
<path d="M101.251 53.3303C101.089 53.3292 100.933 53.2694 100.812 53.1618C100.691 53.0542 100.613 52.9063 100.592 52.7455C100.572 52.5847 100.611 52.422 100.701 52.2876C100.792 52.1532 100.928 52.0563 101.085 52.0149L124.395 45.9917C124.565 45.9529 124.743 45.9818 124.892 46.0723C125.041 46.1628 125.148 46.3078 125.192 46.4764C125.236 46.645 125.212 46.8239 125.125 46.9752C125.039 47.1264 124.897 47.238 124.73 47.2862L101.419 53.3081C101.365 53.323 101.308 53.3304 101.251 53.3303Z" fill="#FFD16C"/>
<path d="M88.9315 63.0055C88.7694 63.0044 88.6132 62.9446 88.492 62.837C88.3707 62.7294 88.2927 62.5815 88.2723 62.4207C88.252 62.2599 88.2907 62.0972 88.3813 61.9628C88.4719 61.8284 88.6083 61.7315 88.765 61.6901L108.68 56.5452C108.765 56.5232 108.853 56.5182 108.94 56.5304C109.027 56.5426 109.111 56.5718 109.186 56.6164C109.262 56.6609 109.328 56.7198 109.381 56.7899C109.433 56.8599 109.472 56.9397 109.494 57.0246C109.516 57.1095 109.521 57.1979 109.509 57.2847C109.496 57.3716 109.467 57.4552 109.423 57.5308C109.378 57.6063 109.319 57.6724 109.249 57.7252C109.179 57.7779 109.099 57.8164 109.014 57.8384L89.0994 62.9833C89.0446 62.9982 88.9882 63.0056 88.9315 63.0055Z" fill="#FFD16C"/>
<path d="M114.089 56.5061C113.927 56.5054 113.77 56.4458 113.649 56.3383C113.528 56.2309 113.449 56.0829 113.429 55.922C113.408 55.7611 113.447 55.5983 113.537 55.4637C113.628 55.3292 113.764 55.2322 113.921 55.1908L124.396 52.4837C124.481 52.4589 124.571 52.4516 124.66 52.4622C124.749 52.4729 124.835 52.5012 124.912 52.5455C124.99 52.5898 125.058 52.6492 125.112 52.7203C125.167 52.7913 125.206 52.8725 125.228 52.959C125.251 53.0456 125.256 53.1358 125.242 53.2242C125.229 53.3126 125.199 53.3975 125.152 53.4739C125.106 53.5503 125.044 53.6166 124.972 53.6689C124.899 53.7211 124.817 53.7583 124.73 53.7783L114.256 56.4839C114.201 56.4987 114.145 56.5062 114.089 56.5061Z" fill="#FFD16C"/>
<path d="M88.9315 69.5047C88.7694 69.5036 88.6132 69.4438 88.492 69.3362C88.3707 69.2286 88.2927 69.0807 88.2723 68.9199C88.252 68.7591 88.2907 68.5964 88.3813 68.462C88.4719 68.3276 88.6083 68.2307 88.765 68.1893L123.572 59.1968C123.657 59.1749 123.746 59.1698 123.832 59.182C123.919 59.1942 124.003 59.2234 124.079 59.268C124.154 59.3125 124.22 59.3714 124.273 59.4415C124.326 59.5115 124.364 59.5913 124.386 59.6762C124.408 59.7611 124.413 59.8495 124.401 59.9364C124.389 60.0232 124.359 60.1068 124.315 60.1824C124.27 60.2579 124.211 60.324 124.141 60.3768C124.071 60.4296 123.992 60.468 123.907 60.49L89.0994 69.4839C89.0445 69.4977 88.9881 69.5046 88.9315 69.5047Z" fill="#FFD16C"/>
<path d="M88.9315 76.0036C88.7694 76.0026 88.6132 75.9427 88.492 75.8352C88.3707 75.7276 88.2927 75.5797 88.2723 75.4189C88.252 75.2581 88.2907 75.0953 88.3813 74.961C88.4719 74.8266 88.6083 74.7297 88.765 74.6883L97.6187 72.4016C97.7037 72.3797 97.7921 72.3747 97.8789 72.3869C97.9658 72.3991 98.0494 72.4283 98.1249 72.4728C98.2005 72.5173 98.2666 72.5763 98.3193 72.6463C98.3721 72.7164 98.4106 72.7961 98.4325 72.881C98.4545 72.9659 98.4595 73.0543 98.4473 73.1412C98.4351 73.228 98.4059 73.3116 98.3614 73.3872C98.3169 73.4628 98.2579 73.5288 98.1878 73.5816C98.1178 73.6344 98.0381 73.6729 97.9531 73.6948L89.0994 75.9828C89.0445 75.9966 88.9881 76.0036 88.9315 76.0036Z" fill="#FFD16C"/>
<path d="M100.757 72.9484C100.595 72.9474 100.439 72.8875 100.318 72.7799C100.197 72.6724 100.119 72.5245 100.098 72.3637C100.078 72.2029 100.117 72.0401 100.207 71.9057C100.298 71.7714 100.434 71.6745 100.591 71.6331L112.359 68.593C112.528 68.5542 112.706 68.5831 112.855 68.6736C113.004 68.7641 113.112 68.9091 113.155 69.0777C113.199 69.2463 113.175 69.4252 113.088 69.5765C113.002 69.7277 112.86 69.8393 112.693 69.8876L100.925 72.9276C100.87 72.9414 100.814 72.9484 100.757 72.9484Z" fill="#FFD16C"/>
<path d="M115.923 69.0299C115.761 69.0289 115.605 68.969 115.484 68.8614C115.362 68.7539 115.284 68.606 115.264 68.4452C115.244 68.2844 115.282 68.1216 115.373 67.9872C115.464 67.8529 115.6 67.756 115.757 67.7146L124.395 65.4834C124.567 65.4391 124.749 65.4647 124.902 65.5546C125.054 65.6445 125.165 65.7913 125.209 65.9628C125.254 66.1343 125.228 66.3164 125.138 66.469C125.048 66.6216 124.901 66.7323 124.73 66.7766L116.091 69.0091C116.036 69.0229 115.98 69.0299 115.923 69.0299Z" fill="#FFD16C"/>
<path d="M88.9315 82.5028C88.7694 82.5018 88.6132 82.4419 88.492 82.3343C88.3707 82.2268 88.2927 82.0789 88.2723 81.9181C88.252 81.7573 88.2907 81.5945 88.3813 81.4602C88.4719 81.3258 88.6083 81.2289 88.765 81.1875L105.114 76.9639C105.284 76.925 105.462 76.954 105.611 77.0445C105.76 77.135 105.867 77.28 105.911 77.4486C105.954 77.6172 105.93 77.7961 105.844 77.9473C105.758 78.0986 105.616 78.2102 105.449 78.2584L89.0994 82.482C89.0445 82.4958 88.9881 82.5028 88.9315 82.5028Z" fill="#FFD16C"/>
<path d="M110.255 76.9944C110.093 76.9934 109.937 76.9335 109.816 76.8259C109.695 76.7184 109.617 76.5704 109.596 76.4096C109.576 76.2488 109.615 76.0861 109.705 75.9517C109.796 75.8173 109.932 75.7204 110.089 75.679L124.396 71.9827C124.481 71.9607 124.569 71.9557 124.656 71.9679C124.743 71.9801 124.826 72.0093 124.902 72.0539C124.977 72.0984 125.043 72.1573 125.096 72.2274C125.149 72.2974 125.187 72.3772 125.209 72.4621C125.231 72.547 125.236 72.6354 125.224 72.7222C125.212 72.8091 125.183 72.8927 125.138 72.9683C125.094 73.0438 125.035 73.1099 124.965 73.1627C124.895 73.2154 124.815 73.2539 124.73 73.2759L110.423 76.9722C110.369 76.987 110.312 76.9945 110.255 76.9944Z" fill="#FFD16C"/>
<path d="M84.0946 93.9889L34.4699 81.1682L38.7893 77.9172L84.0946 89.6224V93.9889Z" fill="#FFD16C"/>
<path d="M50.22 61.4416C49.6126 62.6684 48.753 63.753 47.6974 64.6246C47.2416 64.9873 46.7623 65.3196 46.2627 65.6194C45.6939 65.9677 45.1305 66.2729 44.6713 66.5074C44.058 66.8196 43.632 67.0083 43.632 67.0083C43.632 67.0083 43.5043 67.1929 43.2907 67.5189C42.2972 69.0327 39.4375 73.624 38.7896 77.2066C38.7405 77.4776 38.7049 77.7413 38.6827 77.9975C38.645 78.3909 38.6491 78.7872 38.6952 79.1797C38.834 80.2758 39.0005 81.347 39.1864 82.3862C39.3057 83.0457 39.432 83.6909 39.5652 84.3218C39.9676 86.2352 40.4296 88.014 40.8958 89.6069V89.6221C42.293 94.3994 43.7319 97.5033 43.7666 97.581C43.4128 97.7919 43.4253 108.72 43.6278 124.095C43.6917 129.107 43.7749 134.593 43.8707 140.329C44.0385 150.386 44.2481 161.225 44.4617 171.687H9.7876C10.4814 161.059 11.3472 149.693 12.4045 138.443C12.922 132.928 13.4881 127.44 14.1028 122.08C16.0231 105.362 18.4319 89.8899 21.4344 78.7176C22.5875 74.4288 24.8505 71.1584 27.8281 68.4499C29.2464 67.1768 30.7682 66.0239 32.3778 65.0034C33.0568 64.5667 33.7542 64.1412 34.4702 63.7268C35.8577 62.9221 37.3007 62.1534 38.7896 61.3986C39.3011 61.1377 39.8186 60.8783 40.3422 60.6202C41.5244 60.0346 42.7287 59.4519 43.9497 58.8608H43.9608C45.2096 58.2517 46.4847 57.6328 47.7557 56.9932C47.9804 56.878 48.2121 56.777 48.4495 56.6907L48.5452 56.6588C48.7451 56.5903 48.9509 56.5402 49.1599 56.509L49.2376 56.4978C51.3688 56.2439 51.5076 58.8566 50.22 61.4416Z" fill="#F99370"/>
<path d="M49.2363 56.4895C49.2363 56.4895 49.758 57.8576 48.0777 59.5143C46.3974 61.171 45.2305 61.3528 45.2305 61.3528C45.2305 61.3528 44.7171 59.8889 43.9456 58.8552C43.9456 58.858 47.6184 56.6976 49.2363 56.4895Z" fill="#FCB5A7"/>
<path d="M51.3492 87.3663C51.3492 87.3663 44.9568 87.4884 40.9025 89.6224C40.9025 89.6224 40.2518 87.3316 39.5677 84.322L51.3492 87.3663Z" fill="#E57D61"/>
<path d="M32.3776 53.8853C32.3776 53.8853 29.3792 62.0231 27.7905 68.593C29.204 67.2743 30.74 66.0932 32.3776 65.0659V53.8853Z" fill="#E57D61"/>
<path d="M50.3365 171.686H0C1.38752 159.464 3.07614 147.322 5.01728 137.947C5.18933 137.114 5.36739 136.322 5.55147 135.569C7.72711 126.587 10.7228 122.572 14.1028 122.079C14.1028 122.079 26.4253 127.712 43.6264 124.097C43.6264 124.097 48.4411 125.666 49.3153 138.765C49.6386 143.666 50.0062 156.963 50.3365 171.686Z" fill="#DBA42D"/>
<path d="M124.563 124.094C124.759 108.719 124.771 97.7905 124.417 97.5796C124.452 97.5019 125.891 94.398 127.288 89.6208V89.6055C127.754 88.0127 128.217 86.2339 128.619 84.3205C128.752 83.6887 128.878 83.0435 128.998 82.3849C129.184 81.3456 129.35 80.2745 129.489 79.1783C129.535 78.7858 129.539 78.3895 129.501 77.9961C129.479 77.7399 129.444 77.4763 129.395 77.2053C128.747 73.6199 125.887 69.0314 124.893 67.5176C124.68 67.1915 124.552 67.007 124.552 67.007C124.552 67.007 124.061 66.7891 123.375 66.4339C122.944 66.2105 122.433 65.933 121.921 65.6181C121.422 65.3183 120.943 64.986 120.487 64.6232C119.404 63.7285 118.527 62.61 117.917 61.3445C116.681 58.7915 116.842 56.244 118.948 56.4882C119.181 56.5175 119.41 56.5705 119.632 56.6464L119.692 56.6658C119.945 56.7553 120.193 56.8615 120.433 56.9835C121.649 57.5968 122.865 58.1893 124.068 58.7734C125.342 59.3937 126.603 60.0028 127.839 60.6147C128.362 60.8728 128.879 61.1322 129.392 61.3931C130.881 62.1479 132.326 62.9193 133.711 63.7213C134.425 64.1348 135.123 64.5603 135.803 64.9978C137.413 66.0184 138.935 67.1713 140.353 68.4445C143.331 71.1543 145.594 74.4247 146.747 78.7121C149.749 89.8858 152.158 105.353 154.079 122.075C154.696 127.457 155.263 132.97 155.784 138.509C156.838 149.735 157.699 161.075 158.394 171.682H123.729C123.944 161.168 124.154 150.264 124.323 140.16C124.417 134.486 124.499 129.06 124.563 124.094Z" fill="#F99370"/>
<path d="M118.953 56.4895C118.953 56.4895 118.432 57.8576 120.112 59.5143C121.792 61.171 122.959 61.3528 122.959 61.3528C122.959 61.3528 123.305 59.8071 124.076 58.7761C124.076 58.7761 120.571 56.6976 118.953 56.4895Z" fill="#FCB5A7"/>
<path d="M116.84 87.3663C116.84 87.3663 123.233 87.4884 127.287 89.6224C127.287 89.6224 127.938 87.3316 128.622 84.322L116.84 87.3663Z" fill="#E57D61"/>
<path d="M135.812 53.8853C135.812 53.8853 138.81 62.0231 140.399 68.593C138.986 67.2743 137.45 66.0932 135.812 65.0659V53.8853Z" fill="#E57D61"/>
<path d="M168.19 171.686H117.854C118.184 156.963 118.547 143.666 118.878 138.765C119.749 125.666 124.566 124.097 124.566 124.097C141.772 127.712 154.09 122.079 154.09 122.079C157.47 122.572 160.473 126.587 162.641 135.569C162.826 136.326 163.004 137.119 163.176 137.947C165.114 147.322 166.791 159.464 168.19 171.686Z" fill="#DBA42D"/>
<path d="M84.0947 90.2895C83.9177 90.2895 83.748 90.2192 83.6228 90.094C83.4977 89.9689 83.4273 89.7991 83.4273 89.6221V11.7045C83.4273 11.5275 83.4977 11.3577 83.6228 11.2326C83.748 11.1074 83.9177 11.0371 84.0947 11.0371C84.2717 11.0371 84.4415 11.1074 84.5667 11.2326C84.6918 11.3577 84.7621 11.5275 84.7621 11.7045V89.6221C84.7621 89.7991 84.6918 89.9689 84.5667 90.094C84.4415 90.2192 84.2717 90.2895 84.0947 90.2895Z" fill="#FFD16C"/>
<path d="M49.3126 138.765C25.9746 146.885 5.55164 135.574 5.55164 135.574C7.72727 126.593 10.7229 122.577 14.1029 122.085C14.1029 122.085 26.4241 127.718 43.6266 124.102C43.6266 124.094 48.4357 125.666 49.3126 138.765Z" fill="#795B1B"/>
<path d="M162.638 135.569C141.479 146.63 118.877 138.76 118.877 138.76C119.749 125.66 124.566 124.091 124.566 124.091C141.771 127.707 154.09 122.073 154.09 122.073C157.467 122.567 160.463 126.591 162.638 135.569Z" fill="#795B1B"/>
</svg>
