<svg width="101" height="41" viewBox="0 0 101 41" fill="none" xmlns="http://www.w3.org/2000/svg">
<path fill-rule="evenodd" clip-rule="evenodd" d="M0.718963 14.6609H3.56373C4.91382 11.1202 1.41765 7.69563 3.56373 4.44678H0.720315V4.46164C0.693286 4.45218 0.663554 4.44678 0.635174 4.44678H0.393267C0.177038 4.44678 0 4.71436 0 5.04141V14.0649C0 14.3933 0.177038 14.6609 0.393267 14.6609H0.635174C0.664906 14.6609 0.693286 14.6555 0.720315 14.6461V14.6609H0.718963Z" fill="url(#paint0_linear_1184_3651)"/>
<path d="M8.83331 4.44812L12.4984 0.783032C12.8863 0.395171 13.3822 0.137047 13.9228 0.0410948C14.462 -0.054857 15.0175 0.0181204 15.5148 0.250567L28.817 6.45906C29.2859 6.67799 29.5859 7.14964 29.5873 7.66724V8.21998H21.9233C21.3165 5.52522 18.9082 3.51293 16.031 3.51293C12.6944 3.51293 9.99013 6.21715 9.99013 9.55384C9.99013 12.8905 12.6944 15.5948 16.031 15.5948C18.9082 15.5948 21.3165 13.5825 21.9233 10.8877H29.5873L29.5859 11.4418C29.5859 11.6959 29.5143 11.9445 29.3792 12.1581C29.2427 12.3716 29.0467 12.5432 28.8156 12.65L15.5121 18.8571C15.0161 19.0882 14.4607 19.1625 13.9215 19.0666C13.3822 18.9733 12.8863 18.7139 12.4984 18.326L8.83331 14.6609L5.0628 14.6623C5.75744 9.50114 3.02079 7.4848 5.0628 4.44812H8.83331Z" fill="url(#paint1_linear_1184_3651)"/>
<path fill-rule="evenodd" clip-rule="evenodd" d="M15.9793 5.47925C17.2983 5.47925 18.47 6.10631 19.2146 7.07664H17.4334C16.0712 7.07664 14.9563 8.19158 14.9563 9.55382C14.9563 10.9161 16.0712 12.031 17.4334 12.031H19.2146C18.47 13.0027 17.2983 13.6284 15.9793 13.6284C13.7292 13.6284 11.9047 11.804 11.9047 9.55382C11.9047 7.30368 13.7292 5.47925 15.9793 5.47925Z" fill="url(#paint2_linear_1184_3651)"/>
<path d="M39.7793 16.504C40.2523 16.504 40.6779 16.4562 41.0563 16.3606C41.4346 16.2651 41.7105 16.1616 41.8839 16.0501V13.3269L39.5428 13.5657C38.8965 13.6135 38.3999 13.7568 38.053 13.9957C37.722 14.2187 37.5564 14.5531 37.5564 14.999C37.5564 15.4608 37.7377 15.8271 38.1003 16.0979C38.4629 16.3686 39.0226 16.504 39.7793 16.504ZM39.6611 6.7577C41.206 6.7577 42.4357 7.09213 43.3501 7.76099C44.2644 8.41392 44.7216 9.44906 44.7216 10.8664V16.3606C44.7216 16.7428 44.627 17.0454 44.4379 17.2684C44.2644 17.4913 44.0359 17.6904 43.7521 17.8656C43.3107 18.1204 42.751 18.3274 42.0731 18.4866C41.3952 18.6618 40.6306 18.7494 39.7793 18.7494C38.2028 18.7494 36.9653 18.4468 36.0667 17.8417C35.1681 17.2206 34.7188 16.3049 34.7188 15.0946C34.7188 14.0276 35.0498 13.2154 35.7119 12.658C36.3898 12.0847 37.3673 11.7343 38.6442 11.6069L41.8603 11.2725V10.8425C41.8603 10.2055 41.6396 9.74368 41.1982 9.45703C40.7725 9.17037 40.1655 9.02705 39.3773 9.02705C38.7625 9.02705 38.1634 9.10667 37.5801 9.26592C36.9968 9.42518 36.4765 9.61628 36.0194 9.83923C35.8617 9.71183 35.7198 9.53665 35.5937 9.3137C35.4676 9.09075 35.4045 8.85983 35.4045 8.62095C35.4045 8.04764 35.7198 7.62562 36.3504 7.35489C36.7918 7.14787 37.3042 6.99658 37.8875 6.90102C38.4866 6.80547 39.0778 6.7577 39.6611 6.7577Z" fill="#FCBC31"/>
<path d="M47.7363 12.0847H50.6449V14.9035C50.6449 15.429 50.7947 15.8032 51.0942 16.0262C51.4095 16.2491 51.851 16.3606 52.4185 16.3606C52.6707 16.3606 52.9388 16.3288 53.2225 16.2651C53.5221 16.2014 53.7743 16.1217 53.9792 16.0262C54.0896 16.1536 54.1921 16.3049 54.2867 16.4801C54.3812 16.6552 54.4285 16.8702 54.4285 17.125C54.4285 17.5869 54.2078 17.9691 53.7664 18.2717C53.3408 18.5742 52.6707 18.7255 51.7564 18.7255C50.5109 18.7255 49.5256 18.4468 48.8004 17.8895C48.091 17.3161 47.7363 16.3925 47.7363 15.1185V12.0847ZM49.5099 9.64813V7.33101H54.1448C54.2078 7.44248 54.2709 7.60174 54.334 7.80876C54.4128 8.01579 54.4522 8.23078 54.4522 8.45374C54.4522 8.85187 54.3576 9.15445 54.1684 9.36148C53.9792 9.55258 53.7349 9.64813 53.4353 9.64813H49.5099ZM50.6449 12.7297H47.7363V4.13003C47.8624 4.08225 48.0437 4.03448 48.2802 3.9867C48.5324 3.93893 48.7926 3.91504 49.0606 3.91504C49.6123 3.91504 50.0143 4.01855 50.2666 4.22558C50.5188 4.41668 50.6449 4.76704 50.6449 5.27665V12.7297Z" fill="#FCBC31"/>
<path d="M61.256 16.504C61.729 16.504 62.1546 16.4562 62.533 16.3606C62.9113 16.2651 63.1872 16.1616 63.3606 16.0501V13.3269L61.0195 13.5657C60.3732 13.6135 59.8766 13.7568 59.5297 13.9957C59.1987 14.2187 59.0331 14.5531 59.0331 14.999C59.0331 15.4608 59.2144 15.8271 59.577 16.0979C59.9396 16.3686 60.4993 16.504 61.256 16.504ZM61.1378 6.7577C62.6827 6.7577 63.9124 7.09213 64.8268 7.76099C65.7411 8.41392 66.1983 9.44906 66.1983 10.8664V16.3606C66.1983 16.7428 66.1037 17.0454 65.9146 17.2684C65.7411 17.4913 65.5126 17.6904 65.2288 17.8656C64.7874 18.1204 64.2277 18.3274 63.5498 18.4866C62.8719 18.6618 62.1073 18.7494 61.256 18.7494C59.6795 18.7494 58.442 18.4468 57.5434 17.8417C56.6448 17.2206 56.1954 16.3049 56.1954 15.0946C56.1954 14.0276 56.5265 13.2154 57.1886 12.658C57.8665 12.0847 58.844 11.7343 60.1209 11.6069L63.337 11.2725V10.8425C63.337 10.2055 63.1163 9.74368 62.6749 9.45703C62.2492 9.17037 61.6423 9.02705 60.854 9.02705C60.2392 9.02705 59.6401 9.10667 59.0568 9.26592C58.4735 9.42518 57.9532 9.61628 57.4961 9.83923C57.3384 9.71183 57.1965 9.53665 57.0704 9.3137C56.9443 9.09075 56.8812 8.85983 56.8812 8.62095C56.8812 8.04764 57.1965 7.62562 57.8271 7.35489C58.2685 7.14787 58.7809 6.99658 59.3642 6.90102C59.9633 6.80547 60.5545 6.7577 61.1378 6.7577Z" fill="#FCBC31"/>
<path d="M69.213 12.0847H72.1216V14.9035C72.1216 15.429 72.2714 15.8032 72.5709 16.0262C72.8862 16.2491 73.3277 16.3606 73.8952 16.3606C74.1474 16.3606 74.4154 16.3288 74.6992 16.2651C74.9988 16.2014 75.251 16.1217 75.4559 16.0262C75.5663 16.1536 75.6688 16.3049 75.7634 16.4801C75.8579 16.6552 75.9052 16.8702 75.9052 17.125C75.9052 17.5869 75.6845 17.9691 75.2431 18.2717C74.8175 18.5742 74.1474 18.7255 73.2331 18.7255C71.9876 18.7255 71.0023 18.4468 70.2771 17.8895C69.5677 17.3161 69.213 16.3925 69.213 15.1185V12.0847ZM70.9866 9.64813V7.33101H75.6215C75.6845 7.44248 75.7476 7.60174 75.8106 7.80876C75.8895 8.01579 75.9289 8.23078 75.9289 8.45374C75.9289 8.85187 75.8343 9.15445 75.6451 9.36148C75.4559 9.55258 75.2116 9.64813 74.912 9.64813H70.9866ZM72.1216 12.7297H69.213V4.13003C69.3391 4.08225 69.5204 4.03448 69.7569 3.9867C70.0091 3.93893 70.2693 3.91504 70.5373 3.91504C71.089 3.91504 71.491 4.01855 71.7433 4.22558C71.9955 4.41668 72.1216 4.76704 72.1216 5.27665V12.7297Z" fill="#FCBC31"/>
<path d="M82.7327 16.504C83.2057 16.504 83.6313 16.4562 84.0097 16.3606C84.388 16.2651 84.6639 16.1616 84.8373 16.0501V13.3269L82.4962 13.5657C81.8499 13.6135 81.3533 13.7568 81.0064 13.9957C80.6754 14.2187 80.5098 14.5531 80.5098 14.999C80.5098 15.4608 80.6911 15.8271 81.0537 16.0979C81.4163 16.3686 81.976 16.504 82.7327 16.504ZM82.6145 6.7577C84.1594 6.7577 85.3891 7.09213 86.3035 7.76099C87.2178 8.41392 87.675 9.44906 87.675 10.8664V16.3606C87.675 16.7428 87.5804 17.0454 87.3913 17.2684C87.2178 17.4913 86.9893 17.6904 86.7055 17.8656C86.2641 18.1204 85.7044 18.3274 85.0265 18.4866C84.3486 18.6618 83.584 18.7494 82.7327 18.7494C81.1562 18.7494 79.9187 18.4468 79.0201 17.8417C78.1215 17.2206 77.6721 16.3049 77.6721 15.0946C77.6721 14.0276 78.0032 13.2154 78.6653 12.658C79.3432 12.0847 80.3207 11.7343 81.5976 11.6069L84.8137 11.2725V10.8425C84.8137 10.2055 84.593 9.74368 84.1516 9.45703C83.7259 9.17037 83.1189 9.02705 82.3307 9.02705C81.7159 9.02705 81.1168 9.10667 80.5335 9.26592C79.9502 9.42518 79.4299 9.61628 78.9728 9.83923C78.8151 9.71183 78.6732 9.53665 78.5471 9.3137C78.421 9.09075 78.3579 8.85983 78.3579 8.62095C78.3579 8.04764 78.6732 7.62562 79.3038 7.35489C79.7452 7.14787 80.2576 6.99658 80.8409 6.90102C81.44 6.80547 82.0312 6.7577 82.6145 6.7577Z" fill="#FCBC31"/>
<path d="M101 11.0097V13.3269H98.0914V11.1292C98.0914 10.4285 97.8943 9.91886 97.5002 9.60035C97.106 9.26592 96.5779 9.09871 95.9158 9.09871C95.4271 9.09871 94.9857 9.16241 94.5915 9.28981C94.2132 9.40129 93.8742 9.53665 93.5747 9.69591V13.3269H90.6661V9.5048C90.6661 9.1226 90.7449 8.81205 90.9025 8.57318C91.0602 8.31837 91.2967 8.08746 91.612 7.88043C92.0849 7.56192 92.6919 7.29916 93.4328 7.09213C94.1895 6.86917 95.0251 6.7577 95.9394 6.7577C97.5317 6.7577 98.7693 7.11602 99.6521 7.83265C100.551 8.54929 101 9.60832 101 11.0097ZM90.6661 12.1564H93.5747V18.3433C93.4486 18.3911 93.2673 18.4309 93.0308 18.4628C92.7943 18.5105 92.5342 18.5344 92.2504 18.5344C91.7144 18.5344 91.3124 18.4389 91.0444 18.2478C90.7922 18.0407 90.6661 17.6824 90.6661 17.1728V12.1564ZM98.0914 12.1564H101V18.3433C100.89 18.3911 100.708 18.4309 100.456 18.4628C100.22 18.5105 99.9674 18.5344 99.6994 18.5344C99.1476 18.5344 98.7377 18.4389 98.4697 18.2478C98.2175 18.0407 98.0914 17.6824 98.0914 17.1728V12.1564Z" fill="#FCBC31"/>
<path d="M36.5371 32.6684L39.6713 32.0056C41.1387 33.5439 42.4306 34.9187 43.5472 36.1297C44.6637 37.3244 45.5808 38.2818 46.2986 39.0019C46.2986 39.5256 46.1311 39.943 45.7961 40.2539C45.4771 40.5485 45.1023 40.6958 44.6716 40.6958C44.2091 40.6958 43.8183 40.573 43.4993 40.3275C43.1963 40.0821 42.8932 39.7957 42.5901 39.4683L36.5371 32.6684ZM39.8148 33.7485L36.1782 33.724L43.5711 25.4511C44.3048 25.4675 44.8391 25.6229 45.1741 25.9175C45.509 26.2121 45.6765 26.5721 45.6765 26.9976C45.6765 27.3086 45.5968 27.6032 45.4372 27.8814C45.2937 28.1596 45.0544 28.4624 44.7195 28.7897L39.8148 33.7485ZM34.7188 30.5817H37.7573V40.4503C37.6297 40.483 37.4303 40.5239 37.1591 40.573C36.9039 40.6221 36.6328 40.6467 36.3457 40.6467C35.7715 40.6467 35.3568 40.5403 35.1016 40.3275C34.8464 40.0984 34.7188 39.722 34.7188 39.1983V30.5817ZM37.7573 34.1658H34.7188V25.5738C34.8623 25.5411 35.0617 25.5002 35.3169 25.4511C35.588 25.402 35.8592 25.3774 36.1303 25.3774C36.7045 25.3774 37.1192 25.4838 37.3744 25.6966C37.6297 25.893 37.7573 26.2694 37.7573 26.8258V34.1658Z" fill="#7B5C1B"/>
<path d="M52.97 38.5355C53.4485 38.5355 53.8791 38.4864 54.2619 38.3882C54.6447 38.29 54.9239 38.1836 55.0993 38.0691V35.2705L52.7307 35.516C52.0767 35.5651 51.5743 35.7124 51.2234 35.9579C50.8885 36.187 50.721 36.5307 50.721 36.9889C50.721 37.4635 50.9044 37.84 51.2713 38.1182C51.6381 38.3964 52.2043 38.5355 52.97 38.5355ZM52.8503 28.5197C54.4134 28.5197 55.6576 28.8633 56.5827 29.5507C57.5078 30.2217 57.9703 31.2855 57.9703 32.742V38.3882C57.9703 38.781 57.8746 39.0919 57.6832 39.3211C57.5078 39.5502 57.2765 39.7547 56.9894 39.9348C56.5428 40.1966 55.9766 40.4094 55.2907 40.573C54.6048 40.7531 53.8313 40.8431 52.97 40.8431C51.3749 40.8431 50.1229 40.5321 49.2137 39.9102C48.3045 39.272 47.85 38.3309 47.85 37.0871C47.85 35.9906 48.1849 35.156 48.8548 34.5832C49.5407 33.994 50.5296 33.634 51.8215 33.503L55.0754 33.1594V32.7175C55.0754 32.0628 54.8521 31.5882 54.4055 31.2937C53.9748 30.9991 53.3607 30.8518 52.5632 30.8518C51.9412 30.8518 51.3351 30.9336 50.7449 31.0973C50.1548 31.2609 49.6284 31.4573 49.1658 31.6864C49.0063 31.5555 48.8628 31.3755 48.7352 31.1464C48.6076 30.9172 48.5438 30.6799 48.5438 30.4345C48.5438 29.8453 48.8628 29.4116 49.5008 29.1334C49.9474 28.9206 50.4658 28.7651 51.0559 28.667C51.662 28.5688 52.2602 28.5197 52.8503 28.5197Z" fill="#7B5C1B"/>
<path d="M69.7531 37.1853C69.7531 38.3309 69.3384 39.231 68.509 39.8857C67.6796 40.5239 66.4754 40.8431 64.8963 40.8431C63.6203 40.8431 62.5756 40.6467 61.7621 40.2539C60.9486 39.8611 60.5419 39.3374 60.5419 38.6828C60.5419 38.4046 60.6057 38.1509 60.7333 37.9218C60.8609 37.6763 61.0284 37.4881 61.2357 37.3572C61.6824 37.6517 62.2007 37.9136 62.7909 38.1427C63.381 38.3718 64.0509 38.4864 64.8006 38.4864C66.1564 38.4864 66.8342 38.0609 66.8342 37.2099C66.8342 36.8498 66.7146 36.5634 66.4754 36.3507C66.2361 36.1215 65.8693 35.9579 65.3748 35.8597L64.0111 35.4915C62.8467 35.2296 61.9774 34.8205 61.4032 34.264C60.845 33.7076 60.5658 32.963 60.5658 32.0301C60.5658 30.9991 60.9805 30.1562 61.81 29.5016C62.6394 28.8306 63.7878 28.4951 65.2552 28.4951C66.0208 28.4951 66.7066 28.5769 67.3128 28.7406C67.9189 28.8879 68.3894 29.1088 68.7243 29.4034C69.0752 29.698 69.2507 30.0499 69.2507 30.459C69.2507 30.7372 69.1869 30.9909 69.0593 31.22C68.9476 31.4328 68.7961 31.5964 68.6047 31.711C68.4133 31.5964 68.1501 31.4737 67.8152 31.3428C67.4962 31.1955 67.1293 31.0809 66.7146 30.9991C66.2999 30.9009 65.8852 30.8518 65.4705 30.8518C64.8485 30.8518 64.354 30.9582 63.9871 31.1709C63.6362 31.3673 63.4608 31.6537 63.4608 32.0301C63.4608 32.3083 63.5645 32.5456 63.7718 32.742C63.9792 32.9384 64.3301 33.0939 64.8245 33.2084L66.0447 33.503C67.3367 33.814 68.2777 34.2722 68.8679 34.8778C69.458 35.4669 69.7531 36.2361 69.7531 37.1853Z" fill="#7B5C1B"/>
<defs>
<linearGradient id="paint0_linear_1184_3651" x1="-0.0016335" y1="4.46083" x2="4.45919" y2="13.3825" gradientUnits="userSpaceOnUse">
<stop stop-color="#795B1B"/>
<stop offset="1" stop-color="#DBA42D"/>
</linearGradient>
<linearGradient id="paint1_linear_1184_3651" x1="21.9841" y1="15.2434" x2="4.08436" y2="6.71988" gradientUnits="userSpaceOnUse">
<stop stop-color="#FCBC31"/>
<stop offset="1" stop-color="#FFD16C"/>
</linearGradient>
<linearGradient id="paint2_linear_1184_3651" x1="13.9251" y1="4.91165" x2="17.278" y2="13.6581" gradientUnits="userSpaceOnUse">
<stop stop-color="#795B1B"/>
<stop offset="1" stop-color="#DBA42D"/>
</linearGradient>
</defs>
</svg>
