<svg width="296" height="295" viewBox="0 0 296 295" fill="none" xmlns="http://www.w3.org/2000/svg">
<path d="M243.763 151.27C296.999 180.611 297.276 228.183 244.388 257.523C191.501 286.864 105.473 286.864 52.243 257.523C-0.986833 228.183 -1.27003 180.611 51.6117 151.264C104.493 121.918 190.527 121.924 243.763 151.27Z" fill="#F5F5F5"/>
<path d="M80.5926 231.593L90.3748 237.274C91.1196 237.709 91.9667 237.939 92.8292 237.939C93.6917 237.939 94.5387 237.709 95.2836 237.274L174.804 191.042C175.05 190.899 175.254 190.693 175.396 190.446C175.538 190.199 175.613 189.92 175.613 189.635C175.613 189.35 175.538 189.07 175.396 188.823C175.254 188.576 175.05 188.371 174.804 188.228L165.027 182.54C164.282 182.108 163.435 181.881 162.573 181.881C161.711 181.881 160.865 182.108 160.119 182.54L80.5926 228.778C80.3465 228.922 80.1423 229.127 80.0003 229.374C79.8584 229.621 79.7837 229.901 79.7837 230.186C79.7837 230.47 79.8584 230.75 80.0003 230.997C80.1423 231.244 80.3465 231.449 80.5926 231.593Z" fill="#E6E6E6"/>
<path d="M215.65 217.238C227.408 224.029 227.45 235.038 215.785 241.823C204.121 248.608 185.105 248.614 173.335 241.823C161.564 235.032 161.535 224.029 173.199 217.238C184.863 210.447 203.885 210.447 215.65 217.238Z" fill="#E6E6E6"/>
<path d="M72.3088 189.461C70.7512 187.968 68.9694 186.34 68.8573 184.186C68.757 182.269 70.1671 180.469 71.9607 179.773C72.872 179.466 73.8357 179.345 74.7946 179.418C75.7535 179.491 76.6879 179.756 77.5421 180.198C79.2481 181.095 80.7663 182.31 82.0143 183.779C85.7849 187.966 88.5146 192.984 89.9816 198.425C91.4486 203.865 91.6116 209.575 90.4572 215.09C90.3038 215.816 90.056 216.619 89.4011 216.967C88.3627 217.515 87.1768 216.548 86.4511 215.61C84.9016 213.552 83.7308 211.234 82.9937 208.766C82.3742 206.683 82.6515 204.376 81.8668 202.411C79.9552 197.585 76.0199 193.001 72.3088 189.461Z" fill="#FCBC31"/>
<path d="M88.4984 214.17C88.3889 214.17 88.2839 214.127 88.2064 214.049C88.129 213.972 88.0854 213.867 88.0854 213.757C88.0384 207.712 86.6458 201.754 84.0088 196.314C81.3717 190.875 77.5564 186.091 72.8398 182.31C72.7894 182.279 72.746 182.238 72.7125 182.189C72.6791 182.141 72.6564 182.085 72.6459 182.027C72.6353 181.969 72.6372 181.909 72.6515 181.852C72.6657 181.794 72.6919 181.741 72.7284 181.694C72.7648 181.648 72.8108 181.609 72.8631 181.582C72.9154 181.554 72.973 181.538 73.032 181.534C73.091 181.531 73.1502 181.54 73.2055 181.56C73.2609 181.581 73.3112 181.614 73.3531 181.655C78.164 185.514 82.056 190.395 84.7469 195.944C87.4379 201.494 88.8604 207.572 88.9114 213.739C88.9138 213.795 88.9049 213.851 88.8852 213.903C88.8655 213.955 88.8355 214.003 88.7969 214.043C88.7583 214.083 88.712 214.115 88.6607 214.137C88.6094 214.159 88.5542 214.17 88.4984 214.17Z" fill="white"/>
<path d="M83.3949 230.69C80.7694 231.534 77.4949 230.985 75.9609 228.684C74.1909 225.982 75.2942 221.816 72.8988 219.633C71.5654 218.412 69.5948 218.294 67.8248 217.922C66.0548 217.551 64.0783 216.577 63.8128 214.784C63.4647 212.424 66.3852 210.435 65.9722 208.069C65.5592 205.704 62.3437 205.007 61.3938 202.842C60.5265 200.866 62.0605 198.47 64.0901 197.739C66.1197 197.007 68.3794 197.508 70.4031 198.258C72.4268 199.007 74.3974 199.998 76.5391 200.264C78.7693 200.535 81.3417 200.099 82.9819 201.633C85.1708 203.68 83.92 207.586 85.6133 210.058C86.7461 211.71 88.8819 212.288 90.5162 213.45C91.5338 214.187 92.3596 215.157 92.9243 216.279C93.489 217.401 93.776 218.643 93.7612 219.899C93.7081 222.619 92.2744 224.584 90.2212 226.147C88.0441 227.787 86.0912 229.793 83.3949 230.69Z" fill="#FCBC31"/>
<path opacity="0.2" d="M83.3949 230.69C80.7694 231.534 77.4949 230.985 75.9609 228.684C74.1909 225.982 75.2942 221.816 72.8988 219.633C71.5654 218.412 69.5948 218.294 67.8248 217.922C66.0548 217.551 64.0783 216.577 63.8128 214.784C63.4647 212.424 66.3852 210.435 65.9722 208.069C65.5592 205.704 62.3437 205.007 61.3938 202.842C60.5265 200.866 62.0605 198.47 64.0901 197.739C66.1197 197.007 68.3794 197.508 70.4031 198.258C72.4268 199.007 74.3974 199.998 76.5391 200.264C78.7693 200.535 81.3417 200.099 82.9819 201.633C85.1708 203.68 83.92 207.586 85.6133 210.058C86.7461 211.71 88.8819 212.288 90.5162 213.45C91.5338 214.187 92.3596 215.157 92.9243 216.279C93.489 217.401 93.776 218.643 93.7612 219.899C93.7081 222.619 92.2744 224.584 90.2212 226.147C88.0441 227.787 86.0912 229.793 83.3949 230.69Z" fill="black"/>
<path d="M82.2148 212.07L82.1794 212.028C81.79 211.438 81.3829 210.901 80.9522 210.365C77.0763 205.553 71.8132 202.051 65.8777 200.335C65.7721 200.304 65.6587 200.317 65.5624 200.37C65.4662 200.423 65.3949 200.512 65.3644 200.618C65.3339 200.723 65.3466 200.837 65.3997 200.933C65.4528 201.029 65.542 201.101 65.6476 201.131C71.4172 202.802 76.5335 206.207 80.3032 210.884C80.4212 211.025 80.5215 211.185 80.6395 211.332C75.9195 209.609 71.1464 210.589 68.5917 212.648C68.5486 212.682 68.5128 212.725 68.4862 212.773C68.4596 212.821 68.4428 212.875 68.4368 212.929C68.4307 212.984 68.4356 213.04 68.451 213.093C68.4665 213.146 68.4923 213.195 68.5268 213.238C68.5664 213.286 68.616 213.324 68.6721 213.35C68.7281 213.377 68.7893 213.391 68.8513 213.391C68.9465 213.393 69.0388 213.359 69.1109 213.297C71.642 211.261 76.8635 210.347 81.6012 212.648C84.5655 216.992 86.3059 222.055 86.6398 227.303C86.6444 227.409 86.6901 227.509 86.7673 227.582C86.8444 227.655 86.9468 227.694 87.0528 227.693C87.1071 227.69 87.1602 227.676 87.2092 227.653C87.2582 227.629 87.302 227.596 87.3382 227.555C87.3743 227.515 87.4022 227.468 87.42 227.416C87.4379 227.365 87.4454 227.31 87.4422 227.256C87.1024 221.815 85.296 216.567 82.2148 212.07Z" fill="white"/>
<path d="M64.3027 44.6158C61.6123 46.1675 59.2995 49.2886 58.1844 52.5218C57.4763 52.6076 56.7945 52.8429 56.1843 53.2121C56.0427 53.2947 55.9011 53.3832 55.7536 53.4835C53.3284 55.2587 51.6803 57.8999 51.1516 60.8585C51.0211 61.616 51.0211 62.3902 51.1516 63.1477C51.1578 63.2211 51.1435 63.2948 51.1101 63.3605C51.0768 63.4262 51.0257 63.4812 50.9628 63.5194L48.1957 65.1183C47.561 65.5318 47.033 66.0893 46.6547 66.7455C46.2764 67.4017 46.0584 68.1379 46.0186 68.8943C46.0186 70.2867 47.0039 70.8472 48.2134 70.1451L75.2708 54.5219C75.9075 54.1102 76.4374 53.5532 76.8169 52.8968C77.1964 52.2403 77.4147 51.5032 77.4537 50.7459C77.4537 49.3594 76.4685 48.7989 75.259 49.4951L70.8281 52.0557C70.6924 52.1324 70.598 52.0557 70.6511 51.8551C71.0573 50.5669 71.2233 49.215 71.1408 47.8667C70.8517 44.2028 68.1377 42.6983 64.8042 44.3267L64.3027 44.6158Z" fill="#E6E6E6"/>
<path d="M49.352 31.6358C47.3651 32.9226 45.8753 34.8473 45.1276 37.0933C44.6386 37.1523 44.1679 37.3152 43.747 37.5712L43.452 37.7541C41.7791 38.9831 40.6426 40.8082 40.2778 42.8517C40.1889 43.375 40.1889 43.9096 40.2778 44.4329C40.2824 44.4825 40.2733 44.5324 40.2515 44.5772C40.2296 44.6219 40.1959 44.6598 40.1539 44.6866L38.26 45.7899C37.8192 46.0707 37.451 46.4517 37.1855 46.9018C36.9199 47.3519 36.7645 47.8584 36.7319 48.38C36.7319 49.3358 37.4104 49.7252 38.2482 49.2414L56.9217 38.4798C57.3609 38.1946 57.7266 37.8098 57.9891 37.3567C58.2515 36.9036 58.4033 36.3949 58.4321 35.872C58.4321 34.9103 57.7477 34.5268 56.9158 35.0047L53.8537 36.7747C53.7652 36.8337 53.7003 36.7747 53.7357 36.639C54.0138 35.7506 54.1277 34.8189 54.072 33.8896C53.8714 31.3585 52.0011 30.3496 49.7001 31.4588C49.5821 31.5119 49.47 31.5709 49.352 31.6358Z" fill="#E6E6E6"/>
<path d="M170.278 26.1901C169.747 24.3139 165.948 20.7562 162.166 20.8329C161.803 20.8425 161.444 20.9123 161.104 21.0394L87.649 62.8291C86.4215 63.5278 85.4358 64.5834 84.8229 65.8558C84.3504 66.8141 84.1022 67.8673 84.0972 68.9356V227.84C84.0972 231.888 88.7641 235.752 93.1419 233.894C93.2395 233.865 93.3343 233.828 93.4251 233.782L166.892 191.892C167.967 191.277 168.86 190.388 169.482 189.317C170.104 188.246 170.431 187.03 170.432 185.791V26.9512C170.441 26.6891 170.388 26.4285 170.278 26.1901Z" fill="#37474F"/>
<path d="M94.3396 85.7329C94.3413 85.1131 94.5056 84.5046 94.8162 83.9683C95.1269 83.432 95.5728 82.9866 96.1096 82.6767L164.314 43.8724C164.584 43.7204 164.89 43.6421 165.2 43.6454C165.51 43.6487 165.814 43.7335 166.081 43.8913C166.348 44.049 166.569 44.2742 166.722 44.5443C166.874 44.8144 166.953 45.1198 166.951 45.43V173.531C166.949 174.151 166.785 174.759 166.474 175.295C166.164 175.832 165.718 176.277 165.181 176.587L96.971 215.456C96.7029 215.606 96.4006 215.683 96.0938 215.68C95.7869 215.677 95.486 215.595 95.2206 215.441C94.9553 215.287 94.7345 215.066 94.5801 214.801C94.4256 214.536 94.3427 214.235 94.3396 213.928V85.7329Z" fill="#FCBC31"/>
<path opacity="0.5" d="M94.3396 85.7329C94.3413 85.1131 94.5056 84.5046 94.8162 83.9683C95.1269 83.432 95.5728 82.9866 96.1096 82.6767L164.314 43.8724C164.584 43.7204 164.89 43.6421 165.2 43.6454C165.51 43.6487 165.814 43.7335 166.081 43.8913C166.348 44.049 166.569 44.2742 166.722 44.5443C166.874 44.8144 166.953 45.1198 166.951 45.43V173.531C166.949 174.151 166.785 174.759 166.474 175.295C166.164 175.832 165.718 176.277 165.181 176.587L96.971 215.456C96.7029 215.606 96.4006 215.683 96.0938 215.68C95.7869 215.677 95.486 215.595 95.2206 215.441C94.9553 215.287 94.7345 215.066 94.5801 214.801C94.4256 214.536 94.3427 214.235 94.3396 213.928V85.7329Z" fill="white"/>
<path d="M84.0971 68.9356V227.84C84.0971 231.888 88.764 235.752 93.1418 233.894C92.8771 233.987 92.5939 234.017 92.3156 233.979C92.0374 233.942 91.772 233.839 91.5414 233.678C91.3109 233.518 91.1217 233.305 90.9896 233.058C90.8576 232.81 90.7863 232.534 90.7818 232.254V73.3311C90.7824 71.9488 91.193 70.5977 91.9618 69.4489L84.7697 65.8558C84.3155 66.8184 84.0856 67.8714 84.0971 68.9356Z" fill="#263238"/>
<path d="M162.16 20.827C161.797 20.8366 161.438 20.9064 161.098 21.0335L87.6489 62.8291C86.4214 63.5277 85.4357 64.5834 84.8228 65.8558L92.0149 69.4489C92.6151 68.5302 93.4237 67.7661 94.3749 67.2187L167.842 25.429C168.051 25.3142 168.281 25.2427 168.518 25.2189C168.755 25.1951 168.995 25.2195 169.222 25.2906C169.45 25.3616 169.661 25.478 169.842 25.6325C170.024 25.7871 170.172 25.9768 170.278 26.1901C169.753 24.308 165.954 20.7503 162.16 20.827Z" fill="#455A64"/>
<path d="M139.705 51.6663C140.218 51.3654 140.643 51.6014 140.649 52.1914C140.633 52.5145 140.543 52.8295 140.385 53.112C140.227 53.3945 140.007 53.6367 139.74 53.8198L125.326 62.1388C124.807 62.4397 124.394 62.186 124.388 61.596C124.405 61.273 124.499 60.9586 124.661 60.6787C124.823 60.3987 125.049 60.1611 125.32 59.9853L139.705 51.6663Z" fill="#263238"/>
<path d="M121.586 62.127C122.105 61.8261 122.518 62.0621 122.524 62.658C122.507 62.9819 122.414 63.2973 122.252 63.5783C122.09 63.8593 121.864 64.0979 121.592 64.2746C121.078 64.5755 120.648 64.3277 120.648 63.7377C120.667 63.4145 120.762 63.1003 120.925 62.8205C121.088 62.5407 121.314 62.3031 121.586 62.127Z" fill="#263238"/>
<path d="M130.813 50.4569C131.846 49.8669 132.678 50.333 132.678 51.5189C132.645 52.1663 132.46 52.7968 132.138 53.3596C131.816 53.9223 131.366 54.4013 130.825 54.758C129.793 55.348 128.943 54.8642 128.937 53.6783C128.975 53.0318 129.165 52.4034 129.491 51.8438C129.817 51.2842 130.27 50.8091 130.813 50.4569Z" fill="#263238"/>
<path d="M130.819 200.051C132.92 198.836 134.613 199.804 134.619 202.217C134.553 203.535 134.176 204.819 133.52 205.964C132.864 207.109 131.947 208.083 130.843 208.807C128.742 209.987 127.002 209.025 126.996 206.612C127.073 205.295 127.459 204.014 128.123 202.874C128.787 201.734 129.711 200.767 130.819 200.051Z" fill="#263238"/>
<path d="M125.126 71.7617C126.028 71.2425 126.524 71.5729 126.524 72.6467V76.1395C126.542 76.6415 126.422 77.1388 126.178 77.5776C125.933 78.0164 125.574 78.3801 125.138 78.6293C124.235 79.1485 123.739 78.824 123.739 77.7502V74.2574C123.722 73.7547 123.841 73.2567 124.086 72.8169C124.33 72.3772 124.69 72.0124 125.126 71.7617ZM125.615 76.7413V73.1069C125.615 72.629 125.433 72.5523 125.143 72.7234C124.983 72.8171 124.853 72.9546 124.768 73.1198C124.684 73.2849 124.648 73.4708 124.666 73.6556V77.29C124.666 77.7679 124.854 77.8387 125.143 77.6735C125.303 77.5791 125.432 77.4412 125.515 77.2761C125.599 77.111 125.633 76.9255 125.615 76.7413Z" fill="#FCBC31"/>
<path d="M129.686 69.213V70.1688L128.731 70.7234L128.748 76.4759L127.828 77.0069L127.81 71.2544L126.848 71.809L126.843 70.8473L129.686 69.213Z" fill="#FCBC31"/>
<path d="M132.589 67.5314V68.4931L131.008 69.4076L131.014 71.2779L132.271 70.5463L132.277 71.508L131.014 72.2396L131.02 74.2043L132.607 73.2898V74.2456L130.105 75.6911L130.088 68.9769L132.589 67.5314Z" fill="#FCBC31"/>
<path d="M135.368 65.9266L135.386 71.685L136.896 70.8059L136.902 71.7676L134.471 73.1718L134.454 66.4576L135.368 65.9266Z" fill="#FCBC31"/>
<path d="M138.2 64.2924L138.218 71.0066L137.297 71.5376L137.28 64.8234L138.2 64.2924Z" fill="#FCBC31"/>
<path d="M140.1 63.13C140.997 62.6167 141.457 62.9648 141.457 64.0386V64.251L140.59 64.7466V64.4693C140.59 63.9914 140.424 63.8793 140.129 64.074C139.973 64.1683 139.846 64.3058 139.766 64.4701C139.685 64.6345 139.654 64.8186 139.675 65.0003C139.675 65.49 139.858 65.7437 140.466 66.0033C140.785 66.0989 141.06 66.3026 141.245 66.5792C141.431 66.8559 141.514 67.1884 141.481 67.5196C141.502 68.0194 141.386 68.5155 141.145 68.9536C140.903 69.3917 140.546 69.755 140.112 70.0035C139.209 70.5227 138.743 70.1805 138.743 69.1008V68.6878L139.616 68.1863V68.6701C139.616 69.148 139.799 69.2188 140.088 69.0477C140.248 68.9556 140.379 68.8192 140.463 68.6549C140.548 68.4907 140.584 68.3054 140.566 68.1214C140.566 67.6317 140.377 67.3721 139.775 67.1184C139.455 67.0226 139.179 66.8181 138.994 66.5402C138.808 66.2623 138.726 65.9284 138.761 65.5962C138.736 65.1018 138.848 64.6102 139.084 64.1752C139.32 63.7401 139.672 63.3786 140.1 63.13Z" fill="#FCBC31"/>
<path d="M144.56 60.6226V61.5784L143.599 62.133L143.616 67.8914L142.702 68.4165L142.684 62.664L141.722 63.2186V62.2628L144.56 60.6226Z" fill="#FCBC31"/>
<path d="M135.999 83.6797C136.678 83.2903 137.05 83.5382 137.05 84.3465V86.9601C137.064 87.337 136.974 87.7105 136.791 88.0402C136.608 88.37 136.339 88.6432 136.011 88.8304C135.333 89.2257 134.961 88.9779 134.961 88.1696V85.55C134.949 85.1736 135.04 84.8011 135.223 84.4719C135.405 84.1426 135.674 83.8689 135.999 83.6797ZM136.371 87.4085V84.6886C136.371 84.3287 136.235 84.2756 136.017 84.3995C135.896 84.4699 135.798 84.5735 135.734 84.6979C135.671 84.8224 135.644 84.9625 135.657 85.1017V87.8216C135.657 88.1815 135.793 88.2404 136.011 88.1106C136.131 88.0397 136.229 87.9361 136.293 87.8118C136.357 87.6875 136.384 87.5476 136.371 87.4085Z" fill="white"/>
<path d="M136.005 84.3995C136.224 84.2756 136.359 84.3287 136.359 84.6886V87.4085C136.372 87.5476 136.345 87.6874 136.281 87.8117C136.217 87.936 136.12 88.0397 135.999 88.1106C135.781 88.2404 135.645 88.1814 135.645 87.8215V85.1016C135.632 84.9624 135.659 84.8223 135.723 84.6979C135.786 84.5735 135.885 84.4699 136.005 84.3995Z" fill="#FCBC31"/>
<path d="M129.958 87.9454C130.2 87.8038 130.306 87.9041 130.306 88.264V88.7596C130.322 88.9143 130.292 89.0703 130.22 89.2079C130.147 89.3455 130.036 89.4585 129.899 89.5325L129.627 89.6918V88.1401L129.958 87.9454Z" fill="#FCBC31"/>
<path d="M127.444 89.3437C127.663 89.2139 127.798 89.2729 127.798 89.6328V92.3527C127.812 92.4919 127.785 92.632 127.721 92.7564C127.657 92.8809 127.559 92.9844 127.439 93.0548C127.226 93.1787 127.085 93.1197 127.085 92.7657V90.0458C127.072 89.9067 127.099 89.7669 127.163 89.6426C127.226 89.5183 127.324 89.4147 127.444 89.3437Z" fill="#FCBC31"/>
<path d="M131.923 104.029L131.928 104.743L130.743 105.427V106.831L131.687 106.289V107.008L130.743 107.551L130.748 109.026L131.934 108.342L131.94 109.062L130.058 110.147L130.046 105.114L131.923 104.029Z" fill="white"/>
<path d="M134.283 102.666V103.386L133.563 103.799L133.575 108.117L132.884 108.513L132.872 104.194L132.153 104.613L132.147 103.899L134.283 102.666Z" fill="white"/>
<path d="M135.268 102.094L135.279 107.132L134.595 107.528L134.577 102.495L135.268 102.094Z" fill="white"/>
<path d="M137.952 100.548L137.964 105.581L137.256 105.994L136.401 102.831L136.389 102.837L136.401 106.483L135.775 106.843L135.763 101.81L136.625 101.315L137.333 103.923L137.345 103.917L137.333 100.902L137.952 100.548Z" fill="white"/>
<path d="M139.415 99.6392C140.088 99.2498 140.442 99.5094 140.442 100.318V100.807L139.793 101.179V100.642C139.793 100.282 139.651 100.229 139.433 100.353C139.314 100.425 139.217 100.529 139.155 100.653C139.092 100.777 139.066 100.917 139.079 101.055V103.775C139.079 104.135 139.221 104.182 139.439 104.058C139.559 103.989 139.656 103.886 139.719 103.762C139.782 103.639 139.807 103.5 139.793 103.362V102.436L139.474 102.619V101.893L140.442 101.338V102.937C140.46 103.311 140.375 103.683 140.195 104.011C140.014 104.339 139.747 104.611 139.421 104.796C138.749 105.185 138.395 104.926 138.389 104.123V101.48C138.378 101.109 138.467 100.742 138.648 100.418C138.829 100.094 139.094 99.8246 139.415 99.6392Z" fill="white"/>
<path d="M133.102 121.941C133.315 121.817 133.456 121.876 133.456 122.236V124.956C133.468 125.095 133.441 125.235 133.377 125.359C133.314 125.483 133.216 125.587 133.097 125.658C132.878 125.782 132.743 125.729 132.743 125.363V122.643C132.73 122.504 132.757 122.364 132.821 122.24C132.884 122.116 132.982 122.012 133.102 121.941Z" fill="#FCBC31"/>
<path d="M129.645 123.222C130.323 122.832 130.695 123.074 130.695 123.882V126.502C130.706 126.879 130.614 127.251 130.43 127.581C130.246 127.91 129.977 128.183 129.651 128.372C128.972 128.762 128.601 128.508 128.601 127.706V125.08C128.589 124.704 128.68 124.333 128.864 124.005C129.048 123.678 129.318 123.407 129.645 123.222ZM130.011 126.944V124.225C130.011 123.871 129.875 123.812 129.651 123.935C129.533 124.009 129.438 124.113 129.375 124.237C129.313 124.361 129.286 124.499 129.297 124.638V127.357C129.297 127.723 129.433 127.776 129.651 127.647C129.773 127.578 129.871 127.474 129.934 127.349C129.997 127.224 130.022 127.083 130.005 126.944" fill="white"/>
<path d="M129.645 123.935C129.869 123.812 130.005 123.871 130.005 124.225V126.944C130.022 127.083 129.997 127.224 129.934 127.349C129.871 127.474 129.773 127.578 129.651 127.647C129.433 127.776 129.297 127.723 129.297 127.357V124.638C129.285 124.5 129.311 124.362 129.373 124.238C129.434 124.114 129.528 124.009 129.645 123.935Z" fill="#FCBC31"/>
<path d="M121.509 127.918C122.187 127.528 122.536 127.782 122.536 128.59V129.08L121.887 129.452V128.915C121.887 128.555 121.751 128.496 121.533 128.626C121.411 128.696 121.313 128.799 121.249 128.924C121.185 129.048 121.159 129.189 121.173 129.328V132.048C121.173 132.408 121.308 132.461 121.527 132.331C121.647 132.262 121.745 132.159 121.809 132.036C121.872 131.912 121.9 131.773 121.887 131.635V130.703L121.574 130.886V130.172L122.541 129.611V131.21C122.557 131.584 122.47 131.954 122.29 132.282C122.111 132.609 121.844 132.882 121.521 133.069C120.842 133.458 120.488 133.198 120.482 132.396V129.8C120.461 129.422 120.546 129.045 120.728 128.713C120.909 128.38 121.18 128.105 121.509 127.918Z" fill="white"/>
<path d="M128.359 124.018V124.744L127.639 125.157L127.651 129.476L126.961 129.871L126.949 125.552L126.229 125.971V125.251L128.359 124.018Z" fill="white"/>
<path d="M133.097 121.227C133.775 120.838 134.141 121.08 134.147 121.888V124.49C134.159 124.867 134.069 125.239 133.886 125.569C133.703 125.898 133.434 126.172 133.108 126.36C132.43 126.75 132.058 126.502 132.052 125.7V123.08C132.044 122.706 132.136 122.336 132.32 122.01C132.504 121.684 132.772 121.414 133.097 121.227ZM133.468 124.956V122.236C133.468 121.876 133.327 121.817 133.114 121.941C132.994 122.012 132.896 122.116 132.833 122.24C132.769 122.364 132.742 122.504 132.754 122.643V125.363C132.754 125.729 132.89 125.782 133.108 125.658C133.228 125.587 133.326 125.483 133.389 125.359C133.453 125.235 133.48 125.095 133.468 124.956Z" fill="white"/>
<path d="M138.566 118.13V118.85L137.433 119.505V121.021L138.324 120.508L138.33 121.227L137.439 121.741L137.445 123.817L136.754 124.219L136.743 119.18L138.566 118.13Z" fill="white"/>
<path d="M139.581 117.54L139.598 122.578L138.908 122.974L138.896 117.935L139.581 117.54Z" fill="white"/>
<path d="M141.056 116.631C141.728 116.242 142.082 116.501 142.082 117.304V117.794L141.433 118.171V117.628C141.433 117.274 141.292 117.215 141.073 117.339C140.954 117.41 140.857 117.514 140.794 117.639C140.731 117.763 140.705 117.903 140.719 118.041V120.761C140.719 121.121 140.861 121.174 141.079 121.044C141.199 120.975 141.296 120.872 141.359 120.749C141.422 120.625 141.447 120.486 141.433 120.348V119.634L142.082 119.257V119.929C142.1 120.302 142.014 120.673 141.834 121C141.654 121.327 141.386 121.598 141.062 121.782C140.389 122.171 140.035 121.912 140.035 121.109V118.49C140.017 118.116 140.102 117.744 140.282 117.416C140.463 117.088 140.73 116.816 141.056 116.631Z" fill="white"/>
<path d="M144.377 114.773L144.383 115.493L143.192 116.177V117.581L144.141 117.038V117.752L143.197 118.295L143.203 119.776L144.389 119.086L144.395 119.805L142.513 120.891L142.501 115.852L144.377 114.773Z" fill="white"/>
<path d="M137.002 136.963L137.008 137.682L136.289 138.095L136.3 142.414L135.61 142.815L135.598 138.497L134.878 138.91V138.19L137.002 136.963Z" fill="white"/>
<path d="M138.595 136.042L139.309 140.68L138.613 141.081L138.495 140.231L137.651 140.721L137.533 141.7L136.902 142.066L137.587 136.626L138.595 136.042ZM137.734 139.989L138.401 139.6L138.064 137.24L137.746 139.978" fill="white"/>
<path d="M138.052 137.252L138.064 137.246L138.401 139.606L137.734 139.983L138.052 137.252Z" fill="#FCBC31"/>
<path d="M124.435 144.161C125.114 143.771 125.486 144.013 125.491 144.821V147.441C125.502 147.818 125.411 148.191 125.227 148.52C125.043 148.85 124.774 149.123 124.447 149.311C123.769 149.701 123.403 149.453 123.397 148.651V146.031C123.384 145.654 123.474 145.281 123.657 144.952C123.84 144.622 124.109 144.349 124.435 144.161ZM124.807 147.889V145.17C124.807 144.81 124.671 144.751 124.453 144.88C124.333 144.951 124.235 145.055 124.171 145.179C124.108 145.304 124.081 145.443 124.093 145.583V148.302C124.093 148.662 124.235 148.715 124.447 148.592C124.568 148.521 124.666 148.418 124.73 148.293C124.794 148.169 124.82 148.029 124.807 147.889Z" fill="white"/>
<path d="M124.441 144.88C124.66 144.751 124.795 144.81 124.795 145.17V147.889C124.809 148.029 124.782 148.169 124.718 148.293C124.654 148.418 124.556 148.521 124.435 148.592C124.223 148.715 124.081 148.662 124.081 148.302V145.583C124.069 145.443 124.096 145.304 124.16 145.179C124.223 145.055 124.321 144.951 124.441 144.88Z" fill="#FCBC31"/>
<path d="M128.831 141.683V142.402L128.111 142.821L128.123 147.134L127.433 147.535L127.421 143.217L126.701 143.63V142.91L128.831 141.683Z" fill="white"/>
<path d="M131.303 140.255L131.315 145.293L130.613 145.701L130.607 143.541L129.822 143.99L129.834 146.149L129.144 146.544L129.132 141.506L129.816 141.11L129.822 143.27L130.607 142.821L130.601 140.662L131.303 140.255Z" fill="white"/>
<path d="M133.681 138.88V139.606L132.495 140.29V141.694L133.439 141.146L133.445 141.866L132.501 142.408L132.507 143.883L133.692 143.199V143.919L131.816 145.004L131.799 139.966L133.681 138.88Z" fill="white"/>
<path d="M140.542 134.862C141.209 134.479 141.557 134.738 141.557 135.541V135.7L140.908 136.078V135.865C140.908 135.505 140.778 135.446 140.56 135.57C140.443 135.642 140.348 135.745 140.287 135.868C140.227 135.992 140.203 136.13 140.218 136.266C140.218 136.632 140.36 136.827 140.808 137.022C141.048 137.093 141.255 137.246 141.394 137.454C141.533 137.662 141.595 137.912 141.569 138.16C141.585 138.535 141.497 138.906 141.316 139.234C141.135 139.561 140.868 139.833 140.542 140.019C139.864 140.408 139.516 140.149 139.516 139.346V139.034L140.171 138.662V139.016C140.171 139.382 140.312 139.429 140.531 139.305C140.65 139.234 140.747 139.13 140.81 139.006C140.873 138.881 140.899 138.741 140.885 138.603C140.885 138.237 140.749 138.042 140.295 137.854C140.055 137.782 139.848 137.629 139.709 137.421C139.57 137.213 139.508 136.964 139.534 136.715C139.515 136.343 139.6 135.974 139.778 135.647C139.956 135.32 140.22 135.048 140.542 134.862Z" fill="white"/>
<path d="M144.236 132.785L143.28 135.588L144.248 137.824L143.54 138.231L142.867 136.609L142.655 137.193L142.661 138.744L141.97 139.14L141.958 134.101L142.643 133.706L142.655 135.883L142.661 135.877L143.546 133.187L144.236 132.785Z" fill="white"/>
<path d="M111.792 149.966C112.382 149.612 112.895 149.895 112.895 150.598V156.096C112.874 156.479 112.764 156.852 112.572 157.184C112.38 157.516 112.113 157.799 111.792 158.008L106.818 160.881C106.228 161.229 105.709 160.946 105.709 160.25V154.745C105.73 154.363 105.84 153.991 106.032 153.66C106.224 153.329 106.491 153.048 106.812 152.84L111.792 149.966Z" fill="white"/>
<path d="M111.739 132.06C112.146 131.824 112.5 131.871 112.694 132.136L108.948 138.208L107.727 137.441L105.856 137.942L109.042 140.821L112.848 133.594V138.196C112.828 138.577 112.718 138.949 112.528 139.28C112.337 139.611 112.071 139.893 111.75 140.101L106.771 142.975C106.181 143.323 105.668 143.04 105.662 142.343V136.839C105.681 136.457 105.79 136.085 105.981 135.754C106.172 135.423 106.439 135.141 106.759 134.933L111.739 132.06Z" fill="white"/>
<path d="M149.77 168.799C149.928 168.684 150.114 168.612 150.309 168.591C150.503 168.571 150.7 168.602 150.879 168.681C151.469 169.035 151.469 170.174 150.879 171.23C150.619 171.711 150.239 172.118 149.776 172.41C149.617 172.524 149.431 172.595 149.236 172.614C149.042 172.634 148.845 172.602 148.667 172.522C148.077 172.174 148.077 171.035 148.667 169.979C148.925 169.496 149.305 169.089 149.77 168.799Z" fill="white"/>
<path d="M153.723 172.056C153.906 172.168 153.906 172.516 153.723 172.835C153.645 172.982 153.529 173.106 153.387 173.195C153.339 173.23 153.282 173.251 153.223 173.256C153.163 173.262 153.104 173.25 153.05 173.224L151.204 172.18C150.827 172.709 150.348 173.157 149.794 173.495C149.541 173.679 149.243 173.791 148.933 173.822C148.622 173.854 148.308 173.802 148.024 173.672C147.038 173.112 147.032 171.271 148.024 169.572C148.445 168.808 149.054 168.165 149.794 167.702C150.048 167.521 150.344 167.409 150.654 167.376C150.964 167.343 151.277 167.39 151.564 167.513C152.437 168.008 152.543 169.501 151.876 171.012L153.723 172.056ZM150.897 171.23C151.487 170.174 151.487 169.035 150.897 168.681C150.718 168.602 150.521 168.571 150.327 168.591C150.132 168.612 149.946 168.684 149.788 168.799C149.323 169.089 148.943 169.496 148.684 169.979C148.094 171.035 148.094 172.174 148.684 172.522C148.863 172.602 149.059 172.634 149.254 172.614C149.449 172.595 149.635 172.524 149.794 172.41C150.257 172.118 150.637 171.711 150.897 171.23Z" fill="#FCBC31"/>
<path d="M150.838 164.404C154.083 162.533 156.738 164.038 156.738 167.767C156.738 171.495 154.124 176.027 150.885 177.903C147.646 179.779 144.985 178.269 144.985 174.546C144.985 170.823 147.599 166.274 150.838 164.404ZM153.723 172.835C153.906 172.516 153.906 172.168 153.723 172.056L151.876 171.012C152.543 169.501 152.437 168.008 151.564 167.513C151.277 167.39 150.964 167.343 150.654 167.376C150.344 167.409 150.048 167.521 149.794 167.702C149.054 168.165 148.445 168.808 148.024 169.572C147.044 171.271 147.05 173.112 148.024 173.672C148.308 173.802 148.622 173.853 148.932 173.822C149.243 173.791 149.54 173.679 149.794 173.495C150.348 173.157 150.827 172.709 151.204 172.18L153.05 173.224C153.104 173.25 153.163 173.262 153.223 173.256C153.282 173.251 153.339 173.23 153.387 173.195C153.529 173.106 153.645 172.982 153.723 172.835Z" fill="white"/>
<path d="M115.845 127.9L112.848 133.594L109.042 140.821L105.856 137.942L107.727 137.441L108.948 138.208L112.694 132.136L114.423 129.34L115.845 127.9Z" fill="#455A64"/>
<path d="M136.407 119.375V120.095L135.28 120.749L135.286 122.26L136.171 121.747V122.472L135.286 122.98L135.292 125.062L134.601 125.464L134.583 120.425L136.407 119.375Z" fill="white"/>
<path d="M115.798 109.805L112.801 115.498L108.989 122.726L105.809 119.841L107.673 119.345L108.895 120.106L112.57 114.153L114.37 111.239L115.798 109.805Z" fill="#455A64"/>
<path d="M111.686 114.153C111.812 114.054 111.967 114 112.128 114C112.289 114 112.445 114.054 112.571 114.153L108.895 120.106L107.674 119.345L105.809 119.841L108.989 122.726L112.795 115.498V120.283C112.775 120.666 112.664 121.039 112.473 121.372C112.281 121.704 112.013 121.986 111.691 122.195L106.735 125.08C106.145 125.434 105.626 125.151 105.626 124.443V118.944C105.649 118.562 105.76 118.191 105.952 117.86C106.143 117.529 106.41 117.248 106.73 117.038L111.686 114.153Z" fill="white"/>
<path d="M126.105 89.45L125.633 94.7658L124.718 95.2909L124.471 92.754L124.223 95.5801L123.273 96.1287L122.771 91.3793L123.438 90.9899L123.816 94.7541L124.14 90.5828L124.807 90.1993L125.155 94.0048L125.509 89.798L126.105 89.45Z" fill="white"/>
<path d="M127.439 88.6239C128.117 88.2286 128.489 88.4764 128.495 89.2847V91.8984C128.507 92.2764 128.416 92.6506 128.232 92.981C128.048 93.3114 127.778 93.5857 127.45 93.7746C126.772 94.164 126.406 93.9162 126.4 93.1079V90.4942C126.387 90.1176 126.477 89.7446 126.66 89.4151C126.843 89.0856 127.112 88.8121 127.439 88.6239ZM127.81 92.3527V89.6328C127.81 89.2729 127.675 89.2139 127.456 89.3437C127.336 89.4146 127.238 89.5183 127.175 89.6426C127.111 89.7669 127.084 89.9067 127.096 90.0458V92.7657C127.096 93.1197 127.238 93.1787 127.45 93.0548C127.571 92.9844 127.669 92.8809 127.733 92.7564C127.797 92.632 127.824 92.4919 127.81 92.3527Z" fill="white"/>
<path d="M131.008 91.0547C130.997 91.2447 131.023 91.4351 131.085 91.6152L130.382 92.0223C130.324 91.8315 130.304 91.6309 130.323 91.4323V90.6476C130.323 90.1756 130.182 90.0576 129.869 90.2641L129.627 90.3998V92.453L128.943 92.8483V87.8156L129.987 87.2256C130.695 86.8126 131.002 87.0191 131.008 87.8156V88.2168C131.027 88.6834 130.867 89.1395 130.559 89.4912C130.908 89.4558 131.02 89.7685 131.02 90.2936L131.008 91.0547ZM130.3 88.7596V88.264C130.3 87.9041 130.194 87.8038 129.952 87.9454L129.615 88.1401V89.68L129.887 89.5207C130.024 89.4467 130.135 89.3338 130.208 89.1961C130.28 89.0585 130.31 88.9025 130.294 88.7478" fill="white"/>
<path d="M133.728 85.0485L132.778 87.851L133.746 90.0871L133.032 90.4942L132.359 88.8717L132.147 89.4558L132.153 91.0016L131.462 91.4028L131.45 86.3642L132.135 85.9689L132.141 88.1519L132.158 88.1401L133.038 85.4497L133.728 85.0485Z" fill="white"/>
<path d="M141.911 80.3286V81.0425L141.191 81.4614L141.203 85.7743L140.519 86.1755L140.501 81.8567L139.781 82.2756V81.5558L141.911 80.3286Z" fill="white"/>
<path d="M127.244 106.731L127.256 111.764L126.607 112.141L126.595 108.531L126.129 112.413L125.48 112.79L124.966 109.516V113.085L124.365 113.433L124.353 108.401L125.309 107.846L125.822 111.132L126.288 107.286L127.244 106.731Z" fill="white"/>
<path d="M139.516 81.7091V85.5441C139.531 85.9181 139.443 86.2892 139.262 86.6168C139.081 86.9445 138.814 87.2163 138.489 87.4026C137.811 87.792 137.463 87.5383 137.457 86.73V82.895L138.147 82.4997V86.3878C138.147 86.7418 138.289 86.7949 138.507 86.6651C138.626 86.5959 138.722 86.4941 138.785 86.3717C138.848 86.2494 138.874 86.1117 138.861 85.9748V82.0867L139.516 81.7091Z" fill="white"/>
<path d="M158.714 67.0889C159.894 66.4222 160.803 66.9591 160.809 68.2689V75.4669C160.772 76.1885 160.565 76.891 160.204 77.5167C159.843 78.1424 159.339 78.6734 158.732 79.0659L105.921 109.557C104.741 110.224 103.833 109.693 103.827 108.377V101.179C103.864 100.458 104.072 99.7557 104.433 99.1301C104.794 98.5045 105.298 97.9734 105.903 97.5801L115.302 92.1521L114.317 93.1433L112.441 96.17C112.313 96.1076 112.171 96.0812 112.03 96.0937C111.888 96.1061 111.753 96.157 111.638 96.2408L106.659 99.12C106.337 99.3273 106.07 99.6084 105.879 99.9399C105.688 100.271 105.579 100.644 105.561 101.026V106.525C105.561 107.227 106.063 107.504 106.67 107.156L111.65 104.283C111.971 104.074 112.237 103.793 112.428 103.462C112.619 103.13 112.728 102.759 112.747 102.377V97.3972L115.597 91.9751L158.714 67.0889ZM125.633 94.7658L126.105 89.4558L125.515 89.804L125.179 94.0047L124.819 90.2051L124.152 90.5945L123.839 94.7541L123.45 90.9957L122.783 91.3851L123.285 96.1346L124.235 95.5859L124.471 92.7657L124.73 95.2969L125.645 94.7717M133.757 90.0871L132.79 87.8569L133.74 85.0544L133.049 85.4556L132.17 88.146V85.963L131.486 86.3643V91.3969L132.176 90.9957V89.4499L132.389 88.8599L133.061 90.4824L133.775 90.0694M137.085 86.9483V84.37C137.085 83.5617 136.713 83.3139 136.035 83.7033C135.708 83.8918 135.438 84.1651 135.255 84.4944C135.071 84.8237 134.979 85.1967 134.99 85.5736V88.1932C134.99 89.0015 135.362 89.2493 136.041 88.854C136.368 88.6668 136.638 88.3935 136.821 88.0638C137.004 87.7341 137.093 87.3606 137.079 86.9837M128.53 91.8984V89.2847C128.53 88.4764 128.152 88.2287 127.474 88.624C127.147 88.8122 126.878 89.0856 126.695 89.4151C126.512 89.7446 126.423 90.1176 126.435 90.4942V93.1079C126.435 93.9162 126.807 94.164 127.486 93.7746C127.813 93.5858 128.083 93.3115 128.267 92.981C128.451 92.6506 128.542 92.2764 128.53 91.8984ZM130.412 92.0223L131.114 91.6152C131.053 91.4351 131.027 91.2448 131.037 91.0547V90.27C131.037 89.7449 130.925 89.4322 130.577 89.4676C130.884 89.1159 131.045 88.6598 131.026 88.1932V87.792C131.026 87.0191 130.713 86.8126 130.005 87.202L128.961 87.792V92.8247L129.645 92.4294V90.3762L129.887 90.2405C130.2 90.0576 130.335 90.1521 130.341 90.6241V91.45C130.321 91.6487 130.341 91.8493 130.4 92.04M141.929 81.0601V80.3462L139.799 81.5734V82.2932L140.519 81.8743V86.1931L141.203 85.7919V81.479L141.923 81.0601M139.563 85.5618V81.7268L138.908 82.1044V85.9925C138.921 86.1294 138.895 86.2671 138.832 86.3895C138.769 86.5118 138.673 86.6136 138.554 86.6828C138.336 86.8126 138.194 86.7595 138.194 86.4055V82.5174L137.504 82.9127V86.7477C137.504 87.556 137.858 87.8097 138.536 87.4203C138.861 87.234 139.128 86.9622 139.309 86.6346C139.49 86.3069 139.578 85.9359 139.563 85.5618Z" fill="#FCBC31"/>
<path d="M123.149 72.983L123.167 79.6972L122.223 80.24L121.084 76.0333L121.067 76.0392L121.084 80.9008L120.258 81.3787L120.235 74.6645L121.385 73.9978L122.323 77.4847L122.341 77.4729L122.329 73.455L123.149 72.983Z" fill="#FCBC31"/>
<path d="M132.571 174.799C133.032 174.534 133.409 174.746 133.409 175.277V180.316L137.793 177.785C138.253 177.519 138.631 177.732 138.631 178.263C138.615 178.551 138.532 178.832 138.387 179.082C138.243 179.332 138.041 179.545 137.799 179.702L133.415 182.233V187.266C133.401 187.555 133.317 187.836 133.173 188.086C133.028 188.336 132.826 188.549 132.583 188.706C132.123 188.977 131.745 188.759 131.745 188.234V183.195L127.362 185.726C126.896 185.992 126.524 185.779 126.524 185.248C126.538 184.959 126.621 184.678 126.766 184.428C126.91 184.177 127.113 183.965 127.356 183.809L131.74 181.278V176.239C131.755 175.95 131.838 175.67 131.983 175.419C132.128 175.169 132.329 174.957 132.571 174.799Z" fill="#FCBC31"/>
<path d="M132.565 172.333C137.067 169.731 140.731 171.82 140.743 176.994C140.755 182.168 137.12 188.47 132.619 191.072C128.117 193.673 124.453 191.579 124.441 186.411C124.429 181.242 128.064 174.935 132.565 172.333ZM137.811 179.702C138.053 179.545 138.254 179.332 138.399 179.082C138.544 178.832 138.627 178.551 138.642 178.263C138.642 177.732 138.265 177.519 137.805 177.785L133.421 180.316V175.277C133.421 174.746 133.043 174.534 132.583 174.799C132.341 174.957 132.139 175.169 131.995 175.419C131.85 175.67 131.767 175.95 131.751 176.239V181.278L127.35 183.809C127.107 183.965 126.904 184.177 126.76 184.428C126.615 184.678 126.532 184.959 126.518 185.248C126.518 185.779 126.89 185.992 127.356 185.726L131.739 183.195V188.234C131.739 188.759 132.117 188.977 132.577 188.706C132.82 188.549 133.022 188.336 133.167 188.086C133.312 187.836 133.395 187.555 133.409 187.266V182.233L137.793 179.702" fill="white"/>
<path d="M114.311 187.885L115.467 189.903L118.046 188.847L116.187 192.01L116.636 194.706L114.329 194.641L112.028 197.361L112.458 194.163L110.588 193.154L113.166 191.231L114.311 187.885Z" fill="#FCBC31"/>
<path d="M114.299 185.502C117.544 183.626 120.199 185.13 120.199 188.859C120.199 192.588 117.591 197.119 114.346 199.001C111.101 200.883 108.446 199.367 108.446 195.644C108.446 191.921 111.06 187.372 114.299 185.502ZM116.659 194.706L116.211 192.01L118.069 188.847L115.491 189.903L114.311 187.886L113.19 191.231L110.612 193.154L112.482 194.163L112.051 197.361L114.352 194.641L116.659 194.706Z" fill="white"/>
<path d="M140.72 152.751V153.477L139.528 154.161L139.534 155.565L140.478 155.017V155.736L139.534 156.285L139.54 157.754L140.731 157.07V157.79L138.855 158.875L138.837 153.837L140.72 152.751Z" fill="white"/>
<path d="M138.336 154.126L138.348 159.164L137.699 159.542L137.687 155.925L137.221 159.813L136.572 160.191L136.064 156.916L136.047 156.928L136.058 160.486L135.457 160.834L135.445 155.795L136.401 155.247L136.914 158.533L137.38 154.68L138.336 154.126Z" fill="white"/>
<path d="M133.958 157.318C134.182 157.194 134.318 157.247 134.318 157.607V160.327C134.334 160.465 134.309 160.606 134.246 160.731C134.183 160.856 134.085 160.959 133.964 161.029C133.746 161.159 133.61 161.1 133.604 160.74V158.02C133.591 157.881 133.617 157.742 133.68 157.618C133.742 157.493 133.839 157.389 133.958 157.318Z" fill="#FCBC31"/>
<path d="M133.958 156.598C134.636 156.208 135.008 156.456 135.008 157.259V159.878C135.02 160.255 134.929 160.629 134.745 160.958C134.561 161.287 134.291 161.561 133.964 161.749C133.285 162.138 132.914 161.896 132.914 161.088V158.468C132.899 158.091 132.989 157.716 133.173 157.386C133.358 157.057 133.629 156.784 133.958 156.598ZM134.324 160.327V157.607C134.324 157.247 134.188 157.194 133.964 157.318C133.845 157.389 133.748 157.493 133.685 157.618C133.623 157.742 133.597 157.881 133.61 158.02V160.74C133.61 161.1 133.751 161.159 133.97 161.029C134.091 160.959 134.189 160.856 134.252 160.731C134.315 160.606 134.34 160.465 134.324 160.327Z" fill="white"/>
<path d="M132.471 157.512L132.483 162.551L131.781 162.958L131.775 160.799L130.996 161.247L131.002 163.406L130.312 163.808L130.294 158.769L130.984 158.368L130.996 160.527L131.775 160.079L131.769 157.919L132.471 157.512Z" fill="white"/>
<path d="M127.834 160.132C128.512 159.743 128.884 159.99 128.884 160.793V163.412C128.896 163.789 128.805 164.163 128.621 164.492C128.437 164.821 128.167 165.095 127.84 165.283C127.161 165.672 126.79 165.43 126.79 164.622V162.002C126.777 161.625 126.867 161.251 127.051 160.922C127.235 160.592 127.506 160.319 127.834 160.132ZM128.206 163.861V161.147C128.206 160.781 128.07 160.728 127.852 160.852C127.731 160.924 127.634 161.029 127.57 161.154C127.506 161.279 127.479 161.42 127.492 161.56V164.274C127.492 164.634 127.627 164.693 127.846 164.569C127.966 164.497 128.064 164.392 128.128 164.267C128.192 164.142 128.219 164.001 128.206 163.861Z" fill="white"/>
<path d="M127.84 160.852C128.058 160.728 128.194 160.781 128.194 161.147V163.861C128.207 164.001 128.18 164.141 128.116 164.267C128.052 164.392 127.955 164.497 127.834 164.569C127.615 164.693 127.48 164.634 127.48 164.274V161.56C127.467 161.42 127.495 161.279 127.558 161.154C127.622 161.029 127.719 160.924 127.84 160.852Z" fill="#FCBC31"/>
<path d="M125.373 161.554C126.052 161.164 126.406 161.424 126.406 162.226V162.716L125.751 163.094V162.557C125.751 162.191 125.615 162.138 125.397 162.262C125.277 162.333 125.18 162.437 125.118 162.561C125.055 162.686 125.029 162.825 125.043 162.964V165.684C125.043 166.044 125.185 166.091 125.403 165.967C125.522 165.896 125.618 165.793 125.681 165.67C125.743 165.547 125.77 165.408 125.757 165.271V164.345L125.444 164.527V163.808L126.412 163.247V164.846C126.427 165.22 126.339 165.591 126.158 165.919C125.977 166.246 125.71 166.518 125.385 166.705C124.707 167.094 124.359 166.84 124.353 166.032V163.43C124.334 163.054 124.419 162.679 124.599 162.348C124.779 162.017 125.047 161.742 125.373 161.554Z" fill="white"/>
<path d="M121.975 146.361C122.193 146.237 122.323 146.291 122.323 146.645V149.27C122.337 149.405 122.312 149.542 122.25 149.663C122.188 149.785 122.093 149.886 121.975 149.954L121.586 150.179V146.586L121.975 146.361Z" fill="#FCBC31"/>
<path d="M121.987 145.636C122.671 145.234 123.014 145.482 123.014 146.285V148.833C123.033 149.204 122.948 149.573 122.767 149.898C122.586 150.222 122.318 150.489 121.993 150.668L120.901 151.3V146.261L121.987 145.636ZM122.335 149.27V146.645C122.335 146.291 122.205 146.237 121.987 146.361L121.598 146.586V150.179L121.987 149.954C122.105 149.886 122.2 149.785 122.262 149.664C122.324 149.542 122.349 149.405 122.335 149.27Z" fill="white"/>
<path d="M111.839 167.867C112.429 167.519 112.948 167.802 112.948 168.498V174.003C112.927 174.385 112.816 174.757 112.625 175.088C112.433 175.419 112.166 175.7 111.845 175.909L106.883 178.77C106.293 179.124 105.78 178.841 105.78 178.139V172.634C105.8 172.252 105.911 171.88 106.103 171.549C106.295 171.218 106.562 170.937 106.883 170.728L111.839 167.867Z" fill="white"/>
<path d="M158.915 138.709C160.095 138.042 161.004 138.579 161.009 139.889V147.081C160.974 147.804 160.767 148.507 160.405 149.134C160.044 149.761 159.54 150.293 158.933 150.686L106.128 181.177C104.948 181.838 104.033 181.307 104.033 179.997V172.805C104.07 172.081 104.278 171.377 104.64 170.749C105.002 170.122 105.508 169.589 106.116 169.194L158.915 138.709ZM112.966 174.003V168.498C112.966 167.802 112.464 167.519 111.857 167.867L106.883 170.74C106.562 170.949 106.295 171.23 106.103 171.561C105.911 171.892 105.801 172.264 105.78 172.646V178.151C105.78 178.853 106.275 179.136 106.883 178.782L111.863 175.908C112.183 175.7 112.451 175.419 112.642 175.088C112.834 174.757 112.945 174.385 112.966 174.003ZM138.336 159.164V154.126L137.374 154.68L136.926 158.527L136.401 155.247L135.445 155.795V160.834L136.035 160.486V156.946L136.542 160.22L137.191 159.843L137.646 155.961V159.571L138.295 159.194M132.43 162.58V157.542L131.728 157.949V160.108L130.943 160.557V158.397L130.253 158.798V163.837L130.943 163.436V161.247L131.722 160.799V162.958L132.424 162.551M128.896 163.43V160.81C128.896 160.008 128.524 159.76 127.846 160.15C127.519 160.337 127.249 160.611 127.066 160.94C126.883 161.27 126.794 161.643 126.807 162.02V164.61C126.807 165.418 127.179 165.66 127.857 165.271C128.185 165.083 128.455 164.81 128.638 164.48C128.822 164.151 128.913 163.778 128.902 163.401M135.02 159.89V157.27C135.02 156.468 134.648 156.22 133.97 156.61C133.642 156.796 133.372 157.069 133.189 157.399C133.006 157.729 132.917 158.103 132.931 158.48V161.07C132.931 161.878 133.303 162.12 133.982 161.731C134.303 161.545 134.569 161.276 134.752 160.952C134.934 160.628 135.027 160.262 135.02 159.89ZM126.412 162.728V162.25C126.412 161.448 126.058 161.188 125.379 161.577C125.056 161.764 124.79 162.037 124.61 162.364C124.43 162.692 124.343 163.062 124.359 163.436V166.056C124.359 166.864 124.713 167.117 125.391 166.728C125.716 166.542 125.983 166.27 126.164 165.942C126.345 165.615 126.433 165.244 126.418 164.87V163.271L125.45 163.831V164.551L125.763 164.368V165.294C125.776 165.432 125.749 165.57 125.687 165.694C125.624 165.817 125.528 165.92 125.409 165.991C125.191 166.114 125.049 166.067 125.049 165.707V162.987C125.037 162.848 125.064 162.709 125.128 162.585C125.192 162.461 125.289 162.357 125.409 162.285C125.627 162.161 125.763 162.215 125.763 162.58V163.117L126.418 162.74M140.725 153.494V152.751L138.849 153.837V158.875L140.725 157.79V157.07L139.545 157.754V156.285L140.489 155.736V155.017L139.545 155.565V154.161L140.725 153.471" fill="#FCBC31"/>
<path d="M123.969 126.496C124.648 126.107 125.014 126.354 125.019 127.157V129.8C125.032 130.177 124.943 130.55 124.76 130.879C124.577 131.209 124.308 131.482 123.981 131.67C123.303 132.06 122.931 131.812 122.925 131.01V128.39C122.908 128.009 122.996 127.63 123.18 127.296C123.365 126.962 123.638 126.685 123.969 126.496ZM124.335 130.225V127.505C124.335 127.145 124.193 127.086 123.975 127.216C123.855 127.287 123.759 127.391 123.696 127.515C123.633 127.64 123.607 127.779 123.621 127.918V130.638C123.621 130.998 123.763 131.057 123.981 130.927C124.101 130.856 124.199 130.752 124.261 130.628C124.324 130.503 124.35 130.364 124.335 130.225Z" fill="white"/>
<path d="M123.969 127.216C124.188 127.086 124.329 127.145 124.329 127.505V130.225C124.344 130.364 124.318 130.503 124.255 130.628C124.193 130.753 124.095 130.856 123.975 130.927C123.757 131.057 123.621 130.998 123.615 130.638V127.918C123.601 127.779 123.627 127.64 123.69 127.515C123.753 127.391 123.85 127.287 123.969 127.216Z" fill="#FCBC31"/>
<path d="M158.868 120.803C160.018 120.136 160.956 120.673 160.956 121.983L160.98 129.21C160.942 129.932 160.734 130.635 160.373 131.261C160.012 131.887 159.508 132.42 158.903 132.815L106.11 163.288C104.959 163.955 104.021 163.418 104.015 162.108V154.916C104.055 154.194 104.264 153.491 104.626 152.865C104.988 152.239 105.492 151.706 106.098 151.311L158.868 120.803ZM112.913 156.096V150.598C112.913 149.895 112.417 149.612 111.809 149.966L106.83 152.839C106.509 153.048 106.242 153.329 106.05 153.66C105.858 153.991 105.747 154.363 105.726 154.745V160.25C105.726 160.946 106.228 161.229 106.836 160.881L111.809 158.008C112.131 157.799 112.398 157.516 112.59 157.184C112.781 156.852 112.892 156.479 112.913 156.096ZM138.613 141.081L139.309 140.68L138.595 136.042L137.586 136.632L136.902 142.072L137.533 141.706L137.651 140.727L138.495 140.237L138.613 141.087M144.247 137.83L143.28 135.588L144.236 132.785L143.545 133.187L142.69 135.877V133.7L142.005 134.095V139.134L142.696 138.739V137.187L142.908 136.597L143.581 138.213L144.289 137.806M131.356 145.276V140.237L130.654 140.644V142.804L129.869 143.252V141.093L129.185 141.488V146.527L129.875 146.131V143.972L130.654 143.523V145.73L131.356 145.323M125.539 147.471V144.851C125.539 144.043 125.161 143.801 124.482 144.19C124.156 144.378 123.887 144.652 123.704 144.981C123.521 145.311 123.431 145.684 123.444 146.06V148.68C123.444 149.482 123.816 149.73 124.494 149.341C124.821 149.152 125.091 148.879 125.274 148.55C125.458 148.22 125.55 147.847 125.539 147.471ZM128.872 142.432V141.712L126.742 142.939V143.665L127.462 143.246V147.565L128.152 147.164V142.851L128.872 142.432ZM136.341 142.432V138.113L137.055 137.7V136.98L134.931 138.208V138.927L135.651 138.514V142.833L136.341 142.432ZM123.061 148.851V146.302C123.061 145.5 122.718 145.252 122.034 145.653L120.942 146.279V151.317L122.034 150.686C122.359 150.507 122.628 150.24 122.808 149.915C122.989 149.591 123.074 149.222 123.055 148.851M140.584 140.037C140.909 139.851 141.176 139.579 141.358 139.251C141.539 138.923 141.626 138.552 141.61 138.178C141.636 137.929 141.574 137.679 141.435 137.472C141.296 137.264 141.089 137.111 140.849 137.039C140.395 136.845 140.259 136.65 140.259 136.284C140.244 136.148 140.268 136.009 140.328 135.886C140.389 135.763 140.484 135.659 140.601 135.588C140.82 135.464 140.949 135.523 140.949 135.883V136.095L141.598 135.718V135.558C141.598 134.756 141.25 134.496 140.584 134.88C140.261 135.066 139.997 135.338 139.819 135.664C139.641 135.991 139.556 136.361 139.575 136.733C139.549 136.981 139.611 137.231 139.75 137.439C139.889 137.647 140.096 137.8 140.336 137.871C140.79 138.06 140.926 138.255 140.926 138.621C140.94 138.759 140.914 138.899 140.851 139.023C140.788 139.148 140.692 139.251 140.572 139.323C140.353 139.447 140.212 139.399 140.212 139.034V138.65L139.557 139.022V139.334C139.557 140.137 139.905 140.396 140.584 140.007M133.716 139.594V138.868L131.834 139.954V144.993L133.71 143.907V143.187L132.53 143.872V142.397L133.474 141.854V141.134L132.53 141.677V140.278L133.71 139.594" fill="#FCBC31"/>
<path d="M129.622 105.356V106.07L128.436 106.761V108.165L129.386 107.616V108.336L128.436 108.885L128.442 110.36L129.633 109.675V110.389L127.757 111.475L127.745 106.442L129.622 105.356Z" fill="white"/>
<path d="M158.815 102.896C159.995 102.235 160.903 102.772 160.909 104.076V111.274C160.871 111.996 160.664 112.699 160.303 113.325C159.942 113.952 159.438 114.484 158.832 114.879L106.022 145.364C104.871 146.031 103.933 145.494 103.927 144.184V136.986C103.965 136.264 104.173 135.56 104.535 134.933C104.897 134.307 105.402 133.775 106.01 133.381L158.815 102.896ZM112.848 133.576L115.845 127.877L114.423 129.322L112.694 132.16C112.5 131.895 112.146 131.847 111.739 132.083L106.759 134.957C106.439 135.165 106.172 135.446 105.981 135.778C105.79 136.109 105.681 136.481 105.662 136.862V142.367C105.662 143.063 106.163 143.346 106.771 142.998L111.75 140.125C112.071 139.916 112.337 139.635 112.528 139.304C112.718 138.973 112.828 138.601 112.848 138.219V133.617M125.025 129.8V127.18C125.025 126.378 124.654 126.13 123.975 126.52C123.647 126.707 123.377 126.98 123.192 127.309C123.008 127.639 122.918 128.013 122.931 128.39V130.98C122.931 131.782 123.309 132.03 123.987 131.641C124.313 131.453 124.583 131.179 124.766 130.85C124.948 130.52 125.038 130.147 125.025 129.771M134.153 124.49V121.87C134.153 121.062 133.781 120.82 133.102 121.21C132.775 121.398 132.505 121.671 132.321 122C132.138 122.33 132.047 122.703 132.058 123.08V125.7C132.058 126.502 132.436 126.75 133.114 126.36C133.44 126.172 133.709 125.898 133.892 125.569C134.075 125.239 134.165 124.867 134.153 124.49ZM130.707 126.484V123.865C130.707 123.056 130.335 122.814 129.657 123.204C129.33 123.39 129.06 123.662 128.877 123.991C128.694 124.32 128.605 124.692 128.618 125.068V127.688C128.618 128.49 128.99 128.744 129.669 128.355C129.995 128.166 130.264 127.892 130.448 127.563C130.632 127.234 130.723 126.861 130.713 126.484M128.353 124.714V124.018L126.223 125.251V125.971L126.943 125.552V129.871L127.633 129.476V125.157L128.353 124.744M122.536 129.08V128.62C122.536 127.812 122.188 127.558 121.509 127.947C121.183 128.133 120.915 128.404 120.734 128.732C120.553 129.06 120.466 129.432 120.482 129.806V132.426C120.482 133.228 120.842 133.488 121.521 133.098C121.844 132.911 122.111 132.639 122.29 132.311C122.47 131.984 122.557 131.613 122.542 131.24V129.641L121.574 130.201V130.915L121.887 130.732V131.664C121.9 131.803 121.873 131.942 121.809 132.065C121.745 132.189 121.647 132.291 121.527 132.361C121.308 132.49 121.173 132.437 121.173 132.077V129.358C121.159 129.218 121.185 129.078 121.249 128.953C121.313 128.829 121.411 128.725 121.533 128.655C121.751 128.526 121.887 128.585 121.887 128.945V129.481L122.536 129.11M142.1 117.794V117.304C142.1 116.501 141.746 116.242 141.073 116.631C140.748 116.816 140.48 117.088 140.3 117.416C140.12 117.744 140.034 118.116 140.053 118.49V121.109C140.053 121.912 140.407 122.171 141.079 121.782C141.404 121.598 141.672 121.327 141.852 121C142.032 120.673 142.118 120.302 142.1 119.929V119.257L141.451 119.634V120.36C141.465 120.498 141.439 120.637 141.377 120.76C141.314 120.884 141.217 120.987 141.097 121.056C140.879 121.186 140.743 121.133 140.737 120.773V118.053C140.723 117.915 140.749 117.775 140.812 117.65C140.874 117.526 140.971 117.422 141.091 117.351C141.309 117.227 141.451 117.28 141.451 117.64V118.183L142.1 117.805M144.401 115.504V114.785L142.525 115.864V120.903L144.407 119.817V119.097L143.227 119.788V118.313L144.171 117.764V117.044L143.221 117.593V116.189L144.401 115.504ZM136.43 120.106V119.387L134.607 120.437V125.475L135.297 125.074V122.991L136.182 122.484V121.758L135.297 122.272V120.755L136.43 120.106ZM138.584 118.861V118.142L136.743 119.18V124.219L137.433 123.817V121.741L138.324 121.227V120.502L137.433 121.021V119.505L138.566 118.85M139.598 122.578V117.54L138.914 117.935V122.974L139.604 122.578" fill="#FCBC31"/>
<path d="M158.767 84.9954C159.918 84.3287 160.856 84.8656 160.856 86.1754V93.3734C160.818 94.0951 160.609 94.7975 160.247 95.423C159.885 96.0486 159.38 96.5795 158.773 96.9724L105.968 127.464C104.788 128.13 103.874 127.599 103.874 126.284V119.086C103.914 118.364 104.124 117.661 104.485 117.035C104.847 116.409 105.351 115.876 105.956 115.481L115.798 109.805L114.37 111.239L112.6 114.153C112.474 114.054 112.318 114 112.157 114C111.997 114 111.841 114.054 111.715 114.153L106.7 117.027C106.38 117.236 106.114 117.517 105.922 117.848C105.73 118.179 105.619 118.551 105.597 118.932V124.431C105.597 125.139 106.092 125.422 106.706 125.068L111.679 122.195C112.001 121.985 112.268 121.703 112.459 121.371C112.651 121.039 112.762 120.666 112.783 120.283V115.498L115.786 109.805L158.767 84.9954ZM127.255 111.764V106.731L126.3 107.28L125.839 111.127L125.32 107.846L124.364 108.401V113.433L124.954 113.085V109.545L125.48 112.814L126.129 112.436L126.583 108.56V112.165L127.232 111.787M137.97 105.61V100.577L137.35 100.931V103.946L136.642 101.333L135.781 101.834V106.867L136.4 106.507V102.837L137.256 105.999L137.964 105.586M134.282 103.392V102.66L132.152 103.893V104.607L132.872 104.194V108.507L133.563 108.112V103.793L134.282 103.38M140.442 100.802V100.3C140.442 99.4917 140.088 99.2321 139.415 99.6215C139.09 99.8088 138.823 100.082 138.642 100.41C138.461 100.739 138.373 101.111 138.389 101.486V104.106C138.389 104.908 138.749 105.168 139.421 104.778C139.747 104.593 140.014 104.321 140.195 103.993C140.375 103.665 140.46 103.294 140.442 102.92V101.321L139.474 101.875V102.601L139.793 102.418V103.344C139.807 103.482 139.781 103.621 139.719 103.745C139.656 103.868 139.559 103.971 139.439 104.041C139.221 104.165 139.085 104.117 139.079 103.757V101.038C139.066 100.899 139.092 100.76 139.155 100.635C139.217 100.511 139.314 100.407 139.433 100.335C139.651 100.212 139.793 100.265 139.793 100.625V101.161L140.442 100.79M131.928 104.725V104.011L130.052 105.097V110.129L131.934 109.044V108.324L130.754 109.008V107.533L131.698 106.991V106.271L130.754 106.814V105.409L131.934 104.725M129.627 106.053V105.339L127.751 106.424V111.457L129.627 110.371V109.657L128.447 110.342V108.867L129.391 108.318V107.616L128.441 108.165V106.79L129.621 106.1M135.279 107.162V102.129L134.589 102.524V107.557L135.274 107.162" fill="#FCBC31"/>
<path d="M115.745 91.7097L115.603 91.9811L112.748 97.4032L108.942 104.631L105.756 101.746L107.621 101.25L108.842 102.011L112.441 96.1819L114.317 93.1434L115.302 92.1522L115.745 91.7097Z" fill="#455A64"/>
<path d="M111.638 96.2468C111.754 96.1645 111.889 96.115 112.031 96.1036C112.172 96.0921 112.314 96.1192 112.441 96.1819L108.842 102.011L107.62 101.25L105.756 101.746L108.942 104.631L112.748 97.4032V102.383C112.728 102.765 112.619 103.136 112.428 103.468C112.237 103.799 111.971 104.08 111.65 104.288L106.7 107.162C106.11 107.51 105.597 107.233 105.591 106.53V101.032C105.609 100.65 105.718 100.277 105.909 99.9458C106.099 99.6143 106.367 99.3332 106.688 99.1259L111.638 96.2468Z" fill="white"/>
<path d="M198.002 238.46C197.536 239.923 195.931 240.761 194.397 240.885C192.863 241.009 191.353 240.572 189.843 240.295C186.456 239.705 183.193 240.295 179.813 240.213C178.703 240.22 177.596 240.1 176.515 239.853C175.427 239.599 174.443 239.018 173.694 238.189C173.27 237.683 172.991 237.071 172.886 236.419C172.817 236.909 172.853 237.409 172.992 237.884C173.132 238.359 173.371 238.799 173.694 239.174C174.443 240.003 175.427 240.584 176.515 240.838C177.597 241.083 178.703 241.202 179.813 241.192C183.193 241.275 186.456 240.667 189.843 241.28C191.353 241.552 192.869 241.983 194.397 241.87C195.926 241.758 197.536 240.909 198.002 239.446C198.148 238.938 198.188 238.406 198.12 237.882C198.099 238.078 198.06 238.272 198.002 238.46Z" fill="#263238"/>
<path d="M197.92 235.652C197.707 234.625 197.501 233.605 197.294 232.578C197.216 232.028 197.04 231.497 196.775 231.009C196.637 230.768 196.436 230.568 196.194 230.431C195.952 230.294 195.678 230.225 195.4 230.23C193.548 229.982 190.94 229.309 189.4 230.371C186.963 232.038 184.056 232.882 181.105 232.779C179.577 232.72 178.043 232.407 176.52 232.596C174.998 232.785 173.417 233.628 172.98 235.091C172.852 235.526 172.826 235.984 172.904 236.431C173.009 237.083 173.288 237.694 173.712 238.201C174.46 239.03 175.444 239.611 176.532 239.865C177.614 240.111 178.721 240.232 179.83 240.224C183.211 240.301 186.474 239.693 189.86 240.307C191.371 240.578 192.887 241.009 194.415 240.897C195.943 240.785 197.554 239.935 198.02 238.472C198.078 238.28 198.117 238.082 198.138 237.882C198.182 237.132 198.108 236.379 197.92 235.652Z" fill="#455A64"/>
<path d="M188.952 227.15L188.816 231.156C188.804 231.567 188.951 231.966 189.225 232.271C189.5 232.577 189.882 232.765 190.291 232.796C191.637 232.889 192.989 232.875 194.333 232.755C194.876 232.702 195.384 232.457 195.762 232.063C196.141 231.669 196.366 231.153 196.398 230.607L196.557 227.657L188.952 227.15Z" fill="#FFA8A7"/>
<path d="M215.118 225.014C215.103 225.607 214.916 226.183 214.581 226.672C214.107 227.249 213.433 227.628 212.693 227.734C211.805 227.891 210.89 227.793 210.055 227.452C209.219 227.11 208.498 226.539 207.973 225.805C207.472 225.073 207.183 224.218 206.705 223.445C205.984 222.444 205.094 221.577 204.074 220.884C203.054 220.191 202.158 219.332 201.424 218.341C201.076 217.858 200.849 217.299 200.76 216.709C200.672 216.12 200.726 215.519 200.917 214.955C200.819 215.086 200.735 215.229 200.669 215.38C200.444 215.974 200.369 216.614 200.451 217.244C200.533 217.874 200.77 218.474 201.141 218.99C201.893 220.007 202.808 220.893 203.849 221.61C204.891 222.326 205.799 223.219 206.534 224.247C207.024 225.02 207.313 225.905 207.826 226.654C208.355 227.405 209.085 227.991 209.933 228.344C210.781 228.697 211.711 228.803 212.617 228.649C213.375 228.538 214.063 228.146 214.546 227.551C214.98 226.866 215.176 226.058 215.107 225.25C215.13 225.185 215.124 225.103 215.118 225.014Z" fill="#263238"/>
<path d="M213.903 219.987C212.687 217.852 210.174 216.294 208.233 214.784C207.175 213.862 205.871 213.27 204.481 213.079C203.788 212.996 203.086 213.12 202.464 213.435C201.841 213.75 201.326 214.242 200.982 214.849C200.965 214.884 200.951 214.922 200.941 214.961C200.749 215.525 200.696 216.126 200.784 216.715C200.872 217.304 201.1 217.864 201.448 218.347C202.182 219.338 203.077 220.197 204.097 220.89C205.117 221.583 206.008 222.45 206.728 223.451C207.206 224.2 207.495 225.056 207.997 225.811C208.521 226.545 209.243 227.116 210.078 227.457C210.913 227.799 211.828 227.897 212.717 227.74C213.457 227.634 214.13 227.255 214.605 226.678C214.94 226.189 215.126 225.613 215.142 225.02C215.154 224.824 215.154 224.627 215.142 224.43C215.106 222.869 214.68 221.342 213.903 219.987Z" fill="#455A64"/>
<path d="M208.622 218.135V221.775C209.516 222.194 210.498 222.391 211.485 222.348C212.471 222.304 213.432 222.023 214.286 221.527L214.629 218.247L208.622 218.135Z" fill="#FFA8A7"/>
<path d="M215.584 152.049C216.682 155.323 215.337 170.893 214.699 185.832C217.059 191.473 216.428 207.503 215.065 218.872C215.065 218.872 212.705 220.33 208.416 218.872L203.041 187.455L202.28 169.713C202.28 169.713 200.929 185.467 199.383 195.573C200.84 203.314 200.475 204.771 196.881 228.578C195.631 229.207 194.251 229.534 192.852 229.534C191.452 229.534 190.072 229.207 188.822 228.578C186.787 195.131 187.536 164.645 187.919 153.683L215.584 152.049Z" fill="#37474F"/>
<path d="M216.747 132.42L218.316 135.735L214.564 139.865L214.835 149.736L226.948 139.24C227.491 138.769 227.864 138.133 228.009 137.429C228.154 136.725 228.063 135.993 227.75 135.346L224.057 127.676L216.747 132.42Z" fill="#FFA8A7"/>
<path d="M220.482 138.685C220.482 138.685 218.782 137.281 218.316 135.735L217.384 136.762C218.123 137.786 219.236 138.477 220.482 138.685Z" fill="#F28F8F"/>
<path d="M216.44 133.216C221.248 132.797 224.529 127.812 224.529 127.812C220.228 119.003 216.469 109.197 208.959 111.54L216.44 133.216Z" fill="#FCBC31"/>
<path d="M187.288 126.915V154.58C203.59 161.406 214.151 155.241 215.608 152.031C214.859 140.762 217.52 127.582 217.319 121.977C217.118 116.372 216.428 110.07 207.743 111.357L198.51 112.259L193.825 113.398L187.288 126.915Z" fill="#FCBC31"/>
<path opacity="0.4" d="M187.288 126.915V154.58C203.59 161.406 214.151 155.241 215.608 152.031C214.859 140.762 217.52 127.582 217.319 121.977C217.118 116.372 216.428 110.07 207.743 111.357L198.51 112.259L193.825 113.398L187.288 126.915Z" fill="white"/>
<path d="M159.275 119.723C159.405 120.083 159.569 120.431 159.765 120.761L170.054 137.995C170.421 138.615 170.92 139.147 171.517 139.552C172.113 139.957 172.791 140.225 173.502 140.338C174.214 140.45 174.942 140.405 175.634 140.204C176.326 140.003 176.965 139.652 177.506 139.175L184.055 133.358L177.411 126.278L174.084 129.735L164.52 117.504L163.051 111.091C162.951 110.654 162.759 110.243 162.487 109.885C162.215 109.528 161.87 109.233 161.476 109.02L157.405 106.831C157.252 106.748 157.077 106.717 156.906 106.743C156.734 106.768 156.576 106.849 156.455 106.973C156.372 107.058 156.309 107.16 156.27 107.272C156.231 107.384 156.218 107.504 156.231 107.622C156.244 107.739 156.283 107.853 156.345 107.954C156.407 108.055 156.491 108.141 156.59 108.206L159.54 110.124L155.67 112.413C155.447 112.544 155.264 112.732 155.14 112.959C155.015 113.185 154.954 113.441 154.962 113.699L155.003 115.557C155.012 115.945 155.163 116.315 155.427 116.598C155.692 116.881 156.051 117.057 156.437 117.091L157.074 117.15L157.222 117.54C157.589 118.507 158.322 119.291 159.263 119.723H159.275Z" fill="#FFA8A7"/>
<path d="M172.048 133.983C172.048 133.983 172.597 131.287 174.084 129.735L173.169 128.52C172.479 129.8 171.5 132.284 172.048 133.983Z" fill="#F28F8F"/>
<path d="M176.591 126.301L185.943 117.097C188.021 115.054 190.719 113.757 193.613 113.41H193.784C197.743 122.083 192.51 126.319 192.51 126.319L183.813 134.308C180.536 132.575 177.978 129.739 176.591 126.301Z" fill="#FCBC31"/>
<path d="M193.005 90.7125C191.023 89.9632 189.088 87.1194 191.07 85.8686C191.619 85.4556 193.229 85.9335 194.527 85.8686C193.389 84.842 193.117 83.6148 193.69 83.2254C194.262 82.836 195.778 84.2992 198.545 84.0219C201.312 83.7446 210.841 80.6766 212.033 87.6445C213.366 85.8745 214.835 87.1666 214.835 87.1666L212.853 88.5649C215.803 92.6949 214.835 97.4798 207.72 106.926C206.892 107.927 205.722 108.585 204.435 108.771C203.149 108.956 201.84 108.656 200.764 107.929L197.814 100.689L194.946 97.2025L193.005 90.7125Z" fill="#263238"/>
<path d="M192.344 96.5004L190.433 99.8221L192.527 100.595L192.344 96.5004Z" fill="#F28F8F"/>
<path d="M193.005 90.7125C191.734 95.315 191.544 100.149 192.45 104.837C192.553 105.644 192.855 106.413 193.33 107.073C193.642 107.41 194.017 107.681 194.434 107.873C194.851 108.064 195.302 108.171 195.76 108.188C196.676 108.223 197.593 108.135 198.486 107.929V112.253C201.767 113.026 205.147 113.333 207.72 111.351V106.926C205.867 107.518 203.897 107.642 201.985 107.286C199.719 106.058 199.265 101.917 199.584 100.796C199.786 101.061 200.061 101.262 200.375 101.373C200.69 101.484 201.03 101.501 201.354 101.421C201.666 101.334 201.958 101.185 202.212 100.982C202.466 100.779 202.675 100.527 202.829 100.241C203.133 99.6703 203.319 99.0444 203.377 98.4002C203.538 97.6252 203.419 96.8184 203.041 96.1228C202.754 95.7322 202.354 95.4394 201.895 95.2842C201.435 95.1291 200.94 95.119 200.474 95.2555C199.543 95.5479 198.764 96.1969 198.309 97.0609C198.162 97.328 198.036 97.6062 197.932 97.8928C197.893 98.0045 197.817 98.0995 197.717 98.1617C197.616 98.2239 197.497 98.2495 197.38 98.2343C197.263 98.219 197.155 98.1638 197.073 98.078C196.992 97.9921 196.943 97.8809 196.934 97.763C196.819 96.5209 197.044 95.2708 197.584 94.1463C197.209 94.1073 196.848 93.9848 196.528 93.7877C196.207 93.5906 195.935 93.324 195.731 93.0076C195.515 92.7125 195.371 92.3713 195.309 92.0109C195.248 91.6505 195.271 91.2808 195.377 90.9308C194.58 90.9925 193.778 90.9187 193.005 90.7125Z" fill="#FFA8A7"/>
<path opacity="0.3" d="M202.752 180.54L202.162 166.061C205.902 166.061 209.378 163.265 212.021 160.61C209.478 165.129 204.563 167.135 204.563 167.135L202.752 180.54Z" fill="black"/>
<path d="M202.834 155.17C207.69 138.148 212.121 113.445 208.428 111.28C208.855 110.929 209.382 110.722 209.933 110.687C210.485 110.652 211.033 110.791 211.502 111.085L211.69 111.209C216.381 116.613 205.932 156.379 205.932 156.379L202.834 155.17Z" fill="#FCBC31"/>
<path opacity="0.3" d="M202.834 155.17C207.69 138.148 212.121 113.445 208.428 111.28C208.855 110.929 209.382 110.722 209.933 110.687C210.485 110.652 211.033 110.791 211.502 111.085L211.69 111.209C216.381 116.613 205.932 156.379 205.932 156.379L202.834 155.17Z" fill="black"/>
<path d="M206.41 156.096C206.87 166.469 205.944 175.26 200.923 177.372C195.902 179.484 188.497 176.976 185.724 176.192C182.951 175.407 177.73 172.693 176.473 170.84C176.013 165.755 177.73 160.734 178.916 159.082C180.102 157.43 206.41 156.096 206.41 156.096Z" fill="#FCBC31"/>
<path opacity="0.2" d="M206.41 156.096C206.87 166.469 205.944 175.26 200.923 177.372C195.902 179.484 188.497 176.976 185.724 176.192C182.951 175.407 177.73 172.693 176.473 170.84C176.013 165.755 177.73 160.734 178.916 159.082C180.102 157.43 206.41 156.096 206.41 156.096Z" fill="black"/>
<path d="M187.264 149.689C193.212 150.816 200.734 153.093 206.433 156.096C205.289 158.675 203.69 161.3 202.545 163.878C202.203 164.832 201.657 165.699 200.946 166.421C199.637 167.56 197.707 167.566 195.979 167.395C191.127 166.903 186.411 165.502 182.078 163.265C180.597 162.498 179.057 161.495 178.538 159.914C178.131 158.598 178.538 157.176 179.057 155.902C179.394 155.07 179.783 154.167 180.237 153.264C180.847 151.974 181.867 150.922 183.139 150.275C184.411 149.628 185.862 149.422 187.264 149.689Z" fill="#FCBC31"/>
</svg>
